<svg width="692" height="154" viewBox="0 0 692 154" fill="none" xmlns="http://www.w3.org/2000/svg">
<path d="M20.2471 6.44234C21.4351 5.093 22.8578 4.41834 24.5151 4.41834C26.0258 4.41834 27.2798 4.94634 28.2771 6.00234C29.2891 7.05834 29.7951 8.37834 29.7951 9.96234C29.7951 11.5463 29.2891 12.8663 28.2771 13.9223C27.2798 14.9783 26.0258 15.5063 24.5151 15.5063C22.8431 15.5063 21.4791 14.8903 20.4231 13.6583V20.0823H18.6631V4.68234H20.2471V6.44234ZM26.9571 12.8003C27.6758 12.0817 28.0351 11.1357 28.0351 9.96234C28.0351 8.789 27.6758 7.843 26.9571 7.12434C26.2531 6.40567 25.3731 6.04634 24.3171 6.04634C23.4224 6.04634 22.6304 6.29567 21.9411 6.79434C21.2518 7.293 20.7458 7.909 20.4231 8.64234V11.2823C20.7458 12.0157 21.2518 12.6317 21.9411 13.1303C22.6304 13.629 23.4224 13.8783 24.3171 13.8783C25.3731 13.8783 26.2531 13.519 26.9571 12.8003Z" fill="black"/>
<path d="M33.9111 6.55234C34.3218 5.863 34.9525 5.32767 35.8031 4.94634C36.6538 4.55034 37.5411 4.389 38.4651 4.46234V6.22234C37.4385 6.105 36.5291 6.27367 35.7371 6.72834C34.9598 7.16834 34.4098 7.81367 34.0871 8.66434V15.2423H32.3271V4.68234H33.9111V6.55234Z" fill="black"/>
<path d="M42.1878 15.2423H40.4278V4.68234H42.1878V15.2423ZM42.1218 0.502336C42.3418 0.693003 42.4518 0.964336 42.4518 1.31634C42.4518 1.66834 42.3418 1.947 42.1218 2.15234C41.9018 2.343 41.6305 2.43834 41.3078 2.43834C40.9851 2.43834 40.7138 2.343 40.4938 2.15234C40.2738 1.947 40.1638 1.66834 40.1638 1.31634C40.1638 0.964336 40.2738 0.693003 40.4938 0.502336C40.7138 0.297003 40.9851 0.194336 41.3078 0.194336C41.6305 0.194336 41.9018 0.297003 42.1218 0.502336Z" fill="black"/>
<path d="M44.7711 10.0063C44.7711 9.08234 44.9397 8.25367 45.2771 7.52034C45.6144 6.787 46.0544 6.20034 46.5971 5.76034C47.1544 5.32034 47.7631 4.99034 48.4231 4.77034C49.0977 4.53567 49.7871 4.41834 50.4911 4.41834C51.7964 4.41834 52.8817 4.70434 53.7471 5.27634V6.99234C52.9404 6.36167 51.9284 6.04634 50.7111 6.04634C49.5671 6.04634 48.5844 6.37634 47.7631 7.03634C46.9417 7.69634 46.5311 8.67167 46.5311 9.96234C46.5311 11.2383 46.9344 12.2137 47.7411 12.8883C48.5624 13.5483 49.5377 13.8783 50.6671 13.8783C51.8404 13.8783 52.9037 13.5923 53.8571 13.0203V14.7803C52.8597 15.2643 51.7157 15.5063 50.4251 15.5063C48.8997 15.5063 47.5724 15.0297 46.4431 14.0763C45.3284 13.123 44.7711 11.7663 44.7711 10.0063Z" fill="black"/>
<path d="M55.4918 9.96234C55.4918 8.23167 56.0198 6.875 57.0758 5.89234C58.1464 4.90967 59.3711 4.41834 60.7498 4.41834C62.0404 4.41834 63.1038 4.741 63.9398 5.38634C64.7904 6.03167 65.3478 6.831 65.6118 7.78434C65.8758 8.723 65.8904 9.70567 65.6558 10.7323H57.2518C57.3544 11.7737 57.8164 12.5583 58.6378 13.0863C59.4591 13.6143 60.4491 13.8783 61.6078 13.8783C62.8984 13.8783 64.0571 13.5923 65.0838 13.0203V14.7363C64.1011 15.2497 62.8544 15.5063 61.3438 15.5063C59.6718 15.5063 58.2784 15.0297 57.1638 14.0763C56.0491 13.123 55.4918 11.7517 55.4918 9.96234ZM64.0938 9.19234C64.1378 8.88434 64.1158 8.56167 64.0278 8.22434C63.9398 7.887 63.7784 7.54967 63.5438 7.21234C63.3238 6.875 62.9791 6.59634 62.5098 6.37634C62.0404 6.15634 61.4904 6.04634 60.8598 6.04634C59.9064 6.04634 59.0778 6.325 58.3738 6.88234C57.6844 7.43967 57.3104 8.20967 57.2518 9.19234H64.0938Z" fill="black"/>
<path d="M648.13 127.295L649.868 126.855V130.573H654.092V132.201H649.868V137.657C649.868 138.434 650.044 138.977 650.396 139.285C650.763 139.593 651.342 139.747 652.134 139.747C652.897 139.747 653.674 139.586 654.466 139.263V140.891C653.572 141.214 652.626 141.375 651.628 141.375C650.558 141.375 649.707 141.089 649.076 140.517C648.446 139.93 648.13 139.08 648.13 137.965V132.201H646.15V130.573H648.13V127.295Z" fill="black"/>
<path d="M658.254 141.133H656.494V130.573H658.254V141.133ZM658.188 126.393C658.408 126.584 658.518 126.855 658.518 127.207C658.518 127.559 658.408 127.838 658.188 128.043C657.968 128.234 657.696 128.329 657.374 128.329C657.051 128.329 656.78 128.234 656.56 128.043C656.34 127.838 656.23 127.559 656.23 127.207C656.23 126.855 656.34 126.584 656.56 126.393C656.78 126.188 657.051 126.085 657.374 126.085C657.696 126.085 657.968 126.188 658.188 126.393Z" fill="black"/>
<path d="M663.323 141.133H661.563V130.573H663.147V131.981C664.188 130.866 665.391 130.309 666.755 130.309C668.324 130.309 669.454 130.903 670.143 132.091C671.302 130.903 672.585 130.309 673.993 130.309C675.269 130.309 676.259 130.712 676.963 131.519C677.667 132.311 678.019 133.345 678.019 134.621V141.133H676.259V134.577C676.259 133.77 676.039 133.132 675.599 132.663C675.159 132.179 674.558 131.937 673.795 131.937C672.666 131.937 671.639 132.516 670.715 133.675C670.759 133.983 670.781 134.298 670.781 134.621V141.133H669.021V134.577C669.021 133.77 668.801 133.132 668.361 132.663C667.921 132.179 667.32 131.937 666.557 131.937C665.384 131.937 664.306 132.575 663.323 133.851V141.133Z" fill="black"/>
<path d="M680.409 135.853C680.409 134.122 680.937 132.766 681.993 131.783C683.064 130.8 684.289 130.309 685.667 130.309C686.958 130.309 688.021 130.632 688.857 131.277C689.708 131.922 690.265 132.722 690.529 133.675C690.793 134.614 690.808 135.596 690.573 136.623H682.169C682.272 137.664 682.734 138.449 683.555 138.977C684.377 139.505 685.367 139.769 686.525 139.769C687.816 139.769 688.975 139.483 690.001 138.911V140.627C689.019 141.14 687.772 141.397 686.261 141.397C684.589 141.397 683.196 140.92 682.081 139.967C680.967 139.014 680.409 137.642 680.409 135.853ZM689.011 135.083C689.055 134.775 689.033 134.452 688.945 134.115C688.857 133.778 688.696 133.44 688.461 133.103C688.241 132.766 687.897 132.487 687.427 132.267C686.958 132.047 686.408 131.937 685.777 131.937C684.824 131.937 683.995 132.216 683.291 132.773C682.602 133.33 682.228 134.1 682.169 135.083H689.011Z" fill="black"/>
<path d="M648.13 127.295L649.868 126.855V130.573H654.092V132.201H649.868V137.657C649.868 138.434 650.044 138.977 650.396 139.285C650.763 139.593 651.342 139.747 652.134 139.747C652.897 139.747 653.674 139.586 654.466 139.263V140.891C653.572 141.214 652.626 141.375 651.628 141.375C650.558 141.375 649.707 141.089 649.076 140.517C648.446 139.93 648.13 139.08 648.13 137.965V132.201H646.15V130.573H648.13V127.295Z" fill="black"/>
<path d="M658.254 141.133H656.494V130.573H658.254V141.133ZM658.188 126.393C658.408 126.584 658.518 126.855 658.518 127.207C658.518 127.559 658.408 127.838 658.188 128.043C657.968 128.234 657.696 128.329 657.374 128.329C657.051 128.329 656.78 128.234 656.56 128.043C656.34 127.838 656.23 127.559 656.23 127.207C656.23 126.855 656.34 126.584 656.56 126.393C656.78 126.188 657.051 126.085 657.374 126.085C657.696 126.085 657.968 126.188 658.188 126.393Z" fill="black"/>
<path d="M663.323 141.133H661.563V130.573H663.147V131.981C664.188 130.866 665.391 130.309 666.755 130.309C668.324 130.309 669.454 130.903 670.143 132.091C671.302 130.903 672.585 130.309 673.993 130.309C675.269 130.309 676.259 130.712 676.963 131.519C677.667 132.311 678.019 133.345 678.019 134.621V141.133H676.259V134.577C676.259 133.77 676.039 133.132 675.599 132.663C675.159 132.179 674.558 131.937 673.795 131.937C672.666 131.937 671.639 132.516 670.715 133.675C670.759 133.983 670.781 134.298 670.781 134.621V141.133H669.021V134.577C669.021 133.77 668.801 133.132 668.361 132.663C667.921 132.179 667.32 131.937 666.557 131.937C665.384 131.937 664.306 132.575 663.323 133.851V141.133Z" fill="black"/>
<path d="M680.409 135.853C680.409 134.122 680.937 132.766 681.993 131.783C683.064 130.8 684.289 130.309 685.667 130.309C686.958 130.309 688.021 130.632 688.857 131.277C689.708 131.922 690.265 132.722 690.529 133.675C690.793 134.614 690.808 135.596 690.573 136.623H682.169C682.272 137.664 682.734 138.449 683.555 138.977C684.377 139.505 685.367 139.769 686.525 139.769C687.816 139.769 688.975 139.483 690.001 138.911V140.627C689.019 141.14 687.772 141.397 686.261 141.397C684.589 141.397 683.196 140.92 682.081 139.967C680.967 139.014 680.409 137.642 680.409 135.853ZM689.011 135.083C689.055 134.775 689.033 134.452 688.945 134.115C688.857 133.778 688.696 133.44 688.461 133.103C688.241 132.766 687.897 132.487 687.427 132.267C686.958 132.047 686.408 131.937 685.777 131.937C684.824 131.937 683.995 132.216 683.291 132.773C682.602 133.33 682.228 134.1 682.169 135.083H689.011Z" fill="black"/>
<path d="M630.907 31.9813L565.716 94.6039L490.811 7.85156L432.902 50.0762L326.887 7.85156L234.898 68.1712L36.8931 86.2662" stroke="#808080" stroke-width="2"/>
<circle cx="431.967" cy="48.9878" r="5.5" fill="#26A69A" stroke="white"/>
<circle cx="327.065" cy="8.46533" r="5.5" fill="#C22A1D" stroke="white"/>
<circle cx="490.183" cy="7.85156" r="5.5" fill="#C22A1D" stroke="white"/>
<circle cx="566.1" cy="94.604" r="5.5" fill="#26A69A" stroke="white"/>
<path d="M1.15234 1.24219V152.133H691.798" stroke="black" stroke-width="2"/>
</svg>
