<svg width="692" height="155" viewBox="0 0 692 155" fill="none" xmlns="http://www.w3.org/2000/svg">
<path d="M20.2471 8.20015C21.4351 6.85082 22.8578 6.17615 24.5151 6.17615C26.0258 6.17615 27.2798 6.70415 28.2771 7.76015C29.2891 8.81615 29.7951 10.1361 29.7951 11.7201C29.7951 13.3041 29.2891 14.6241 28.2771 15.6801C27.2798 16.7361 26.0258 17.2641 24.5151 17.2641C22.8431 17.2641 21.4791 16.6481 20.4231 15.4161V21.8401H18.6631V6.44015H20.2471V8.20015ZM26.9571 14.5581C27.6758 13.8395 28.0351 12.8935 28.0351 11.7201C28.0351 10.5468 27.6758 9.60081 26.9571 8.88215C26.2531 8.16348 25.3731 7.80415 24.3171 7.80415C23.4224 7.80415 22.6304 8.05348 21.9411 8.55215C21.2518 9.05082 20.7458 9.66681 20.4231 10.4001V13.0401C20.7458 13.7735 21.2518 14.3895 21.9411 14.8881C22.6304 15.3868 23.4224 15.6361 24.3171 15.6361C25.3731 15.6361 26.2531 15.2768 26.9571 14.5581Z" fill="black"/>
<path d="M33.9111 8.31015C34.3218 7.62082 34.9525 7.08548 35.8031 6.70415C36.6538 6.30815 37.5411 6.14681 38.4651 6.22015V7.98015C37.4385 7.86282 36.5291 8.03148 35.7371 8.48615C34.9598 8.92615 34.4098 9.57148 34.0871 10.4221V17.0001H32.3271V6.44015H33.9111V8.31015Z" fill="black"/>
<path d="M42.1878 17.0001H40.4278V6.44015H42.1878V17.0001ZM42.1218 2.26015C42.3418 2.45082 42.4518 2.72215 42.4518 3.07415C42.4518 3.42615 42.3418 3.70481 42.1218 3.91015C41.9018 4.10081 41.6305 4.19615 41.3078 4.19615C40.9851 4.19615 40.7138 4.10081 40.4938 3.91015C40.2738 3.70481 40.1638 3.42615 40.1638 3.07415C40.1638 2.72215 40.2738 2.45082 40.4938 2.26015C40.7138 2.05482 40.9851 1.95215 41.3078 1.95215C41.6305 1.95215 41.9018 2.05482 42.1218 2.26015Z" fill="black"/>
<path d="M44.7711 11.7641C44.7711 10.8401 44.9397 10.0115 45.2771 9.27815C45.6144 8.54482 46.0544 7.95815 46.5971 7.51815C47.1544 7.07815 47.7631 6.74815 48.4231 6.52815C49.0977 6.29348 49.7871 6.17615 50.4911 6.17615C51.7964 6.17615 52.8817 6.46215 53.7471 7.03415V8.75015C52.9404 8.11948 51.9284 7.80415 50.7111 7.80415C49.5671 7.80415 48.5844 8.13415 47.7631 8.79415C46.9417 9.45415 46.5311 10.4295 46.5311 11.7201C46.5311 12.9961 46.9344 13.9715 47.7411 14.6461C48.5624 15.3061 49.5377 15.6361 50.6671 15.6361C51.8404 15.6361 52.9037 15.3501 53.8571 14.7781V16.5381C52.8597 17.0221 51.7157 17.2641 50.4251 17.2641C48.8997 17.2641 47.5724 16.7875 46.4431 15.8341C45.3284 14.8808 44.7711 13.5241 44.7711 11.7641Z" fill="black"/>
<path d="M55.4918 11.7201C55.4918 9.98948 56.0198 8.63282 57.0758 7.65015C58.1464 6.66748 59.3711 6.17615 60.7498 6.17615C62.0404 6.17615 63.1038 6.49882 63.9398 7.14415C64.7904 7.78948 65.3478 8.58882 65.6118 9.54215C65.8758 10.4808 65.8904 11.4635 65.6558 12.4901H57.2518C57.3544 13.5315 57.8164 14.3161 58.6378 14.8441C59.4591 15.3721 60.4491 15.6361 61.6078 15.6361C62.8984 15.6361 64.0571 15.3501 65.0838 14.7781V16.4941C64.1011 17.0075 62.8544 17.2641 61.3438 17.2641C59.6718 17.2641 58.2784 16.7875 57.1638 15.8341C56.0491 14.8808 55.4918 13.5095 55.4918 11.7201ZM64.0938 10.9501C64.1378 10.6421 64.1158 10.3195 64.0278 9.98215C63.9398 9.64482 63.7784 9.30748 63.5438 8.97015C63.3238 8.63282 62.9791 8.35415 62.5098 8.13415C62.0404 7.91415 61.4904 7.80415 60.8598 7.80415C59.9064 7.80415 59.0778 8.08281 58.3738 8.64015C57.6844 9.19748 57.3104 9.96748 57.2518 10.9501H64.0938Z" fill="black"/>
<path d="M648.13 129.053L649.868 128.613V132.331H654.092V133.959H649.868V139.415C649.868 140.192 650.044 140.735 650.396 141.043C650.763 141.351 651.342 141.505 652.134 141.505C652.897 141.505 653.674 141.343 654.466 141.021V142.649C653.572 142.971 652.626 143.133 651.628 143.133C650.558 143.133 649.707 142.847 649.076 142.275C648.446 141.688 648.13 140.837 648.13 139.723V133.959H646.15V132.331H648.13V129.053ZM658.254 142.891H656.494V132.331H658.254V142.891ZM658.188 128.151C658.408 128.341 658.518 128.613 658.518 128.965C658.518 129.317 658.408 129.595 658.188 129.801C657.968 129.991 657.696 130.087 657.374 130.087C657.051 130.087 656.78 129.991 656.56 129.801C656.34 129.595 656.23 129.317 656.23 128.965C656.23 128.613 656.34 128.341 656.56 128.151C656.78 127.945 657.051 127.843 657.374 127.843C657.696 127.843 657.968 127.945 658.188 128.151ZM663.323 142.891H661.563V132.331H663.147V133.739C664.188 132.624 665.391 132.067 666.755 132.067C668.324 132.067 669.454 132.661 670.143 133.849C671.302 132.661 672.585 132.067 673.993 132.067C675.269 132.067 676.259 132.47 676.963 133.277C677.667 134.069 678.019 135.103 678.019 136.379V142.891H676.259V136.335C676.259 135.528 676.039 134.89 675.599 134.421C675.159 133.937 674.558 133.695 673.795 133.695C672.666 133.695 671.639 134.274 670.715 135.433C670.759 135.741 670.781 136.056 670.781 136.379V142.891H669.021V136.335C669.021 135.528 668.801 134.89 668.361 134.421C667.921 133.937 667.32 133.695 666.557 133.695C665.384 133.695 664.306 134.333 663.323 135.609V142.891ZM680.409 137.611C680.409 135.88 680.937 134.523 681.993 133.541C683.064 132.558 684.289 132.067 685.667 132.067C686.958 132.067 688.021 132.389 688.857 133.035C689.708 133.68 690.265 134.479 690.529 135.433C690.793 136.371 690.808 137.354 690.573 138.381H682.169C682.272 139.422 682.734 140.207 683.555 140.735C684.377 141.263 685.367 141.527 686.525 141.527C687.816 141.527 688.975 141.241 690.001 140.669V142.385C689.019 142.898 687.772 143.155 686.261 143.155C684.589 143.155 683.196 142.678 682.081 141.725C680.967 140.771 680.409 139.4 680.409 137.611ZM689.011 136.841C689.055 136.533 689.033 136.21 688.945 135.873C688.857 135.535 688.696 135.198 688.461 134.861C688.241 134.523 687.897 134.245 687.427 134.025C686.958 133.805 686.408 133.695 685.777 133.695C684.824 133.695 683.995 133.973 683.291 134.531C682.602 135.088 682.228 135.858 682.169 136.841H689.011Z" fill="black"/>
<path d="M648.13 129.053L649.868 128.613V132.331H654.092V133.959H649.868V139.415C649.868 140.192 650.044 140.735 650.396 141.043C650.763 141.351 651.342 141.505 652.134 141.505C652.897 141.505 653.674 141.343 654.466 141.021V142.649C653.572 142.971 652.626 143.133 651.628 143.133C650.558 143.133 649.707 142.847 649.076 142.275C648.446 141.688 648.13 140.837 648.13 139.723V133.959H646.15V132.331H648.13V129.053Z" fill="black"/>
<path d="M658.254 142.891H656.494V132.331H658.254V142.891ZM658.188 128.151C658.408 128.341 658.518 128.613 658.518 128.965C658.518 129.317 658.408 129.595 658.188 129.801C657.968 129.991 657.696 130.087 657.374 130.087C657.051 130.087 656.78 129.991 656.56 129.801C656.34 129.595 656.23 129.317 656.23 128.965C656.23 128.613 656.34 128.341 656.56 128.151C656.78 127.945 657.051 127.843 657.374 127.843C657.696 127.843 657.968 127.945 658.188 128.151Z" fill="black"/>
<path d="M663.323 142.891H661.563V132.331H663.147V133.739C664.188 132.624 665.391 132.067 666.755 132.067C668.324 132.067 669.454 132.661 670.143 133.849C671.302 132.661 672.585 132.067 673.993 132.067C675.269 132.067 676.259 132.47 676.963 133.277C677.667 134.069 678.019 135.103 678.019 136.379V142.891H676.259V136.335C676.259 135.528 676.039 134.89 675.599 134.421C675.159 133.937 674.558 133.695 673.795 133.695C672.666 133.695 671.639 134.274 670.715 135.433C670.759 135.741 670.781 136.056 670.781 136.379V142.891H669.021V136.335C669.021 135.528 668.801 134.89 668.361 134.421C667.921 133.937 667.32 133.695 666.557 133.695C665.384 133.695 664.306 134.333 663.323 135.609V142.891Z" fill="black"/>
<path d="M680.409 137.611C680.409 135.88 680.937 134.523 681.993 133.541C683.064 132.558 684.289 132.067 685.667 132.067C686.958 132.067 688.021 132.389 688.857 133.035C689.708 133.68 690.265 134.479 690.529 135.433C690.793 136.371 690.808 137.354 690.573 138.381H682.169C682.272 139.422 682.734 140.207 683.555 140.735C684.377 141.263 685.367 141.527 686.525 141.527C687.816 141.527 688.975 141.241 690.001 140.669V142.385C689.019 142.898 687.772 143.155 686.261 143.155C684.589 143.155 683.196 142.678 682.081 141.725C680.967 140.771 680.409 139.4 680.409 137.611ZM689.011 136.841C689.055 136.533 689.033 136.21 688.945 135.873C688.857 135.535 688.696 135.198 688.461 134.861C688.241 134.523 687.897 134.245 687.427 134.025C686.958 133.805 686.408 133.695 685.777 133.695C684.824 133.695 683.995 133.973 683.291 134.531C682.602 135.088 682.228 135.858 682.169 136.841H689.011Z" fill="black"/>
<path d="M620.907 37.7391L571.406 42.2628L521.904 46.7866L422.902 55.834L316.887 13.6094L224.898 73.929L26.8931 92.024" stroke="#808080" stroke-width="2"/>
<path d="M620.907 69.0718L422.902 87.1668L314.017 88.8177L224.898 105.262L26.8931 123.357" stroke="#808080" stroke-width="2"/>
<circle cx="424.483" cy="55.6606" r="5.5" fill="#26A69A" stroke="white"/>
<circle cx="317.065" cy="14.2231" r="5.5" fill="#C22A1D" stroke="white"/>
<path d="M1.15234 3V153.891H691.798" stroke="black" stroke-width="2"/>
<path d="M509.271 0.799824H513.863C515.036 0.799824 515.964 1.04516 516.647 1.53582C517.329 2.01582 517.671 2.71449 517.671 3.63182C517.671 4.29316 517.495 4.83716 517.143 5.26382C516.791 5.67982 516.369 5.96249 515.879 6.11182C516.476 6.27182 516.999 6.58116 517.447 7.03982C517.895 7.48782 518.119 8.11716 518.119 8.92782C518.119 9.41849 518.023 9.85049 517.831 10.2238C517.649 10.5972 517.415 10.8958 517.127 11.1198C516.849 11.3332 516.519 11.5092 516.135 11.6478C515.761 11.7865 515.399 11.8825 515.047 11.9358C514.705 11.9785 514.353 11.9998 513.991 11.9998H509.271V0.799824ZM516.759 8.78382C516.759 7.49316 515.868 6.84782 514.087 6.84782H510.615V10.7198H513.719C514.06 10.7198 514.348 10.7145 514.583 10.7038C514.817 10.6825 515.084 10.6398 515.383 10.5758C515.681 10.5012 515.921 10.3998 516.103 10.2718C516.284 10.1332 516.439 9.94116 516.567 9.69582C516.695 9.43982 516.759 9.13582 516.759 8.78382ZM516.311 3.82382C516.311 3.19449 516.092 2.74649 515.655 2.47982C515.228 2.21316 514.593 2.07982 513.751 2.07982H510.615V5.56782H514.119C514.759 5.56782 515.281 5.42916 515.687 5.15182C516.103 4.86382 516.311 4.42116 516.311 3.82382Z" fill="#808080"/>
<path d="M518.819 0.799824H528.035V2.07982H524.099V11.9998H522.755V2.07982H518.819V0.799824Z" fill="#808080"/>
<path d="M528.409 6.47982C528.409 5.24249 528.702 4.17049 529.289 3.26382C529.876 2.34649 530.606 1.67449 531.481 1.24782C532.356 0.821157 533.294 0.607824 534.297 0.607824C535.449 0.607824 536.5 0.858491 537.449 1.35982V2.70382C536.638 2.15982 535.662 1.88782 534.521 1.88782C533.241 1.88782 532.132 2.28249 531.193 3.07182C530.254 3.85049 529.78 4.98649 529.769 6.47982C529.769 7.42916 530.009 8.25049 530.489 8.94382C530.98 9.63716 531.577 10.1385 532.281 10.4478C532.996 10.7572 533.758 10.9118 534.569 10.9118C535.774 10.9118 536.761 10.6398 537.529 10.0958V11.4398C536.558 11.9412 535.476 12.1918 534.281 12.1918C533.566 12.1918 532.862 12.0692 532.169 11.8238C531.476 11.5678 530.846 11.2105 530.281 10.7518C529.716 10.2825 529.262 9.67982 528.921 8.94382C528.58 8.19716 528.409 7.37582 528.409 6.47982Z" fill="#808080"/>
<path d="M547.502 0.799824H548.846V7.90382C548.846 8.67182 548.718 9.34382 548.462 9.91982C548.217 10.4852 547.87 10.9332 547.422 11.2638C546.985 11.5838 546.494 11.8185 545.95 11.9678C545.417 12.1172 544.825 12.1918 544.174 12.1918C542.798 12.1918 541.673 11.8505 540.798 11.1678C539.924 10.4852 539.486 9.39716 539.486 7.90382V0.799824H540.83V7.83982C540.83 9.88782 541.945 10.9118 544.174 10.9118C546.393 10.9118 547.502 9.88782 547.502 7.83982V0.799824Z" fill="#808080"/>
<path d="M550.989 3.56782C550.989 2.61849 551.357 1.88782 552.093 1.37582C552.829 0.863824 553.741 0.607824 554.829 0.607824C556.141 0.607824 557.272 0.879824 558.221 1.42382V2.76782C557.282 2.15982 556.184 1.86649 554.925 1.88782C553.208 1.88782 552.349 2.43182 552.349 3.51982C552.349 3.95716 552.514 4.33049 552.845 4.63982C553.176 4.94916 553.586 5.18382 554.077 5.34382C554.568 5.50382 555.101 5.69049 555.677 5.90382C556.264 6.10649 556.802 6.31982 557.293 6.54382C557.784 6.75716 558.194 7.08782 558.525 7.53582C558.856 7.98382 559.021 8.52249 559.021 9.15182C559.021 9.68516 558.904 10.1545 558.669 10.5598C558.445 10.9652 558.136 11.2852 557.741 11.5198C557.346 11.7545 556.909 11.9252 556.429 12.0318C555.949 12.1385 555.432 12.1918 554.877 12.1918C553.458 12.1918 552.178 11.8718 551.037 11.2318V9.88783C552.157 10.5705 553.405 10.9118 554.781 10.9118C556.701 10.9118 557.661 10.3572 557.661 9.24782C557.661 8.84249 557.538 8.49582 557.293 8.20782C557.048 7.90916 556.728 7.66916 556.333 7.48782C555.938 7.30649 555.501 7.14116 555.021 6.99182C554.552 6.84249 554.082 6.68249 553.613 6.51182C553.144 6.33049 552.712 6.12782 552.317 5.90382C551.922 5.66916 551.602 5.35449 551.357 4.95982C551.112 4.56516 550.989 4.10116 550.989 3.56782Z" fill="#808080"/>
<path d="M561.021 0.799824H564.701C566.61 0.799824 568.071 1.31716 569.085 2.35182C570.109 3.37582 570.621 4.72516 570.621 6.39982C570.621 8.07449 570.109 9.42916 569.085 10.4638C568.071 11.4878 566.61 11.9998 564.701 11.9998H561.021V0.799824ZM568.093 9.58382C568.871 8.82649 569.261 7.76516 569.261 6.39982C569.261 5.03449 568.871 3.97316 568.093 3.21582C567.325 2.45849 566.194 2.07982 564.701 2.07982H562.365V10.7198H564.701C566.194 10.7198 567.325 10.3412 568.093 9.58382Z" fill="#808080"/>
<path d="M587.217 0.799824H588.369V11.9998H587.025V3.34382L583.009 9.35982H582.177L578.161 3.34382V11.9998H576.817V0.799824H577.969L582.593 7.71182L587.217 0.799824Z" fill="#808080"/>
<path d="M591.546 11.1198C590.735 10.3945 590.33 9.40782 590.33 8.15982C590.33 6.91182 590.735 5.93049 591.546 5.21582C592.356 4.49049 593.316 4.12782 594.426 4.12782C595.546 4.12782 596.506 4.49049 597.306 5.21582C598.116 5.93049 598.522 6.91182 598.522 8.15982C598.522 9.40782 598.116 10.3945 597.306 11.1198C596.506 11.8345 595.546 12.1918 594.426 12.1918C593.316 12.1918 592.356 11.8345 591.546 11.1198ZM596.442 10.2238C596.975 9.71182 597.242 9.02382 597.242 8.15982C597.242 7.29582 596.975 6.61316 596.442 6.11182C595.908 5.59982 595.236 5.34382 594.426 5.34382C593.615 5.34382 592.943 5.59982 592.41 6.11182C591.876 6.61316 591.61 7.29582 591.61 8.15982C591.61 9.02382 591.876 9.71182 592.41 10.2238C592.943 10.7252 593.615 10.9758 594.426 10.9758C595.236 10.9758 595.908 10.7252 596.442 10.2238Z" fill="#808080"/>
<path d="M601.51 5.45582C601.787 5.08249 602.171 4.76782 602.662 4.51182C603.163 4.25582 603.702 4.12782 604.278 4.12782C605.206 4.12782 605.968 4.42116 606.566 5.00782C607.174 5.58382 607.478 6.33582 607.478 7.26382V11.9998H606.198V7.42382C606.198 6.73049 606.006 6.20782 605.622 5.85582C605.248 5.49316 604.752 5.31182 604.134 5.31182C603.152 5.31182 602.32 5.82382 601.638 6.84782V11.9998H600.358V4.31982H601.51V5.45582Z" fill="#808080"/>
<path d="M610.166 1.93582L611.43 1.61582V4.31982H614.502V5.50382H611.43V9.47182C611.43 10.0372 611.558 10.4318 611.814 10.6558C612.081 10.8798 612.502 10.9918 613.078 10.9918C613.633 10.9918 614.198 10.8745 614.774 10.6398V11.8238C614.124 12.0585 613.436 12.1758 612.71 12.1758C611.932 12.1758 611.313 11.9678 610.854 11.5518C610.396 11.1252 610.166 10.5065 610.166 9.69582V5.50382H608.726V4.31982H610.166V1.93582Z" fill="#808080"/>
<path d="M616.217 0.799824H617.497V5.29582C617.796 4.96516 618.174 4.68782 618.633 4.46382C619.102 4.23982 619.604 4.12782 620.137 4.12782C621.065 4.12782 621.828 4.42116 622.425 5.00782C623.033 5.58382 623.337 6.33582 623.337 7.26382V11.9998H622.057V7.42382C622.057 6.73049 621.865 6.20782 621.481 5.85582C621.108 5.49316 620.612 5.31182 619.993 5.31182C619.012 5.31182 618.18 5.82382 617.497 6.84782V11.9998H616.217V0.799824Z" fill="#808080"/>
<path d="M625.64 0.319824H626.92V11.9998H625.64V0.319824Z" fill="#808080"/>
<path d="M632.558 10.5438L635.15 4.31982H636.51L632.734 13.1518C631.998 14.8585 631.033 15.7118 629.838 15.7118C629.55 15.7118 629.273 15.6745 629.006 15.5998V14.4958C629.23 14.5598 629.454 14.5918 629.678 14.5918C630.5 14.5918 631.161 13.9678 631.662 12.7198L631.95 12.0158L628.302 4.31982H629.662L632.558 10.5438Z" fill="#808080"/>
<path d="M641.099 3.56782C641.099 2.61849 641.467 1.88782 642.203 1.37582C642.939 0.863824 643.851 0.607824 644.939 0.607824C646.251 0.607824 647.381 0.879824 648.331 1.42382V2.76782C647.392 2.15982 646.293 1.86649 645.035 1.88782C643.317 1.88782 642.459 2.43182 642.459 3.51982C642.459 3.95716 642.624 4.33049 642.955 4.63982C643.285 4.94916 643.696 5.18382 644.187 5.34382C644.677 5.50382 645.211 5.69049 645.787 5.90382C646.373 6.10649 646.912 6.31982 647.403 6.54382C647.893 6.75716 648.304 7.08782 648.635 7.53582C648.965 7.98382 649.131 8.52249 649.131 9.15182C649.131 9.68516 649.013 10.1545 648.779 10.5598C648.555 10.9652 648.245 11.2852 647.851 11.5198C647.456 11.7545 647.019 11.9252 646.539 12.0318C646.059 12.1385 645.541 12.1918 644.987 12.1918C643.568 12.1918 642.288 11.8718 641.147 11.2318V9.88783C642.267 10.5705 643.515 10.9118 644.891 10.9118C646.811 10.9118 647.771 10.3572 647.771 9.24782C647.771 8.84249 647.648 8.49582 647.403 8.20782C647.157 7.90916 646.837 7.66916 646.443 7.48782C646.048 7.30649 645.611 7.14116 645.131 6.99182C644.661 6.84249 644.192 6.68249 643.723 6.51182C643.253 6.33049 642.821 6.12782 642.427 5.90382C642.032 5.66916 641.712 5.35449 641.467 4.95982C641.221 4.56516 641.099 4.10116 641.099 3.56782Z" fill="#808080"/>
<path d="M650.842 0.799824H652.122V5.29582C652.421 4.96516 652.799 4.68782 653.258 4.46382C653.727 4.23982 654.229 4.12782 654.762 4.12782C655.69 4.12782 656.453 4.42116 657.05 5.00782C657.658 5.58382 657.962 6.33582 657.962 7.26382V11.9998H656.682V7.42382C656.682 6.73049 656.49 6.20782 656.106 5.85582C655.733 5.49316 655.237 5.31182 654.618 5.31182C653.637 5.31182 652.805 5.82382 652.122 6.84782V11.9998H650.842V0.799824Z" fill="#808080"/>
<path d="M660.921 11.1198C660.11 10.3945 659.705 9.40782 659.705 8.15982C659.705 6.91182 660.11 5.93049 660.921 5.21582C661.731 4.49049 662.691 4.12782 663.801 4.12782C664.921 4.12782 665.881 4.49049 666.681 5.21582C667.491 5.93049 667.897 6.91182 667.897 8.15982C667.897 9.40782 667.491 10.3945 666.681 11.1198C665.881 11.8345 664.921 12.1918 663.801 12.1918C662.691 12.1918 661.731 11.8345 660.921 11.1198ZM665.817 10.2238C666.35 9.71182 666.617 9.02382 666.617 8.15982C666.617 7.29582 666.35 6.61316 665.817 6.11182C665.283 5.59982 664.611 5.34382 663.801 5.34382C662.99 5.34382 662.318 5.59982 661.785 6.11182C661.251 6.61316 660.985 7.29582 660.985 8.15982C660.985 9.02382 661.251 9.71182 661.785 10.2238C662.318 10.7252 662.99 10.9758 663.801 10.9758C664.611 10.9758 665.283 10.7252 665.817 10.2238Z" fill="#808080"/>
<path d="M670.885 5.67982C671.183 5.17849 671.642 4.78916 672.261 4.51182C672.879 4.22382 673.525 4.10649 674.197 4.15982V5.43982C673.45 5.35449 672.789 5.47716 672.213 5.80782C671.647 6.12782 671.247 6.59716 671.013 7.21582V11.9998H669.733V4.31982H670.885V5.67982Z" fill="#808080"/>
<path d="M676.104 1.93582L677.368 1.61582V4.31982H680.44V5.50382H677.368V9.47182C677.368 10.0372 677.496 10.4318 677.752 10.6558C678.019 10.8798 678.44 10.9918 679.016 10.9918C679.571 10.9918 680.136 10.8745 680.712 10.6398V11.8238C680.061 12.0585 679.373 12.1758 678.648 12.1758C677.869 12.1758 677.251 11.9678 676.792 11.5518C676.333 11.1252 676.104 10.5065 676.104 9.69582V5.50382H674.664V4.31982H676.104V1.93582Z" fill="#808080"/>
<path d="M501.271 99.1568H505.863C507.036 99.1568 507.964 99.4021 508.647 99.8928C509.329 100.373 509.671 101.071 509.671 101.989C509.671 102.65 509.495 103.194 509.143 103.621C508.791 104.037 508.369 104.319 507.879 104.469C508.476 104.629 508.999 104.938 509.447 105.397C509.895 105.845 510.119 106.474 510.119 107.285C510.119 107.775 510.023 108.207 509.831 108.581C509.649 108.954 509.415 109.253 509.127 109.477C508.849 109.69 508.519 109.866 508.135 110.005C507.761 110.143 507.399 110.239 507.047 110.293C506.705 110.335 506.353 110.357 505.991 110.357H501.271V99.1568ZM508.759 107.141C508.759 105.85 507.868 105.205 506.087 105.205H502.615V109.077H505.719C506.06 109.077 506.348 109.071 506.583 109.061C506.817 109.039 507.084 108.997 507.383 108.933C507.681 108.858 507.921 108.757 508.103 108.629C508.284 108.49 508.439 108.298 508.567 108.053C508.695 107.797 508.759 107.493 508.759 107.141ZM508.311 102.181C508.311 101.551 508.092 101.103 507.655 100.837C507.228 100.57 506.593 100.437 505.751 100.437H502.615V103.925H506.119C506.759 103.925 507.281 103.786 507.687 103.509C508.103 103.221 508.311 102.778 508.311 102.181Z" fill="#808080"/>
<path d="M510.819 99.1568H520.035V100.437H516.099V110.357H514.755V100.437H510.819V99.1568Z" fill="#808080"/>
<path d="M520.409 104.837C520.409 103.599 520.702 102.527 521.289 101.621C521.876 100.703 522.606 100.031 523.481 99.6048C524.356 99.1781 525.294 98.9648 526.297 98.9648C527.449 98.9648 528.5 99.2154 529.449 99.7168V101.061C528.638 100.517 527.662 100.245 526.521 100.245C525.241 100.245 524.132 100.639 523.193 101.429C522.254 102.207 521.78 103.343 521.769 104.837C521.769 105.786 522.009 106.607 522.489 107.301C522.98 107.994 523.577 108.495 524.281 108.805C524.996 109.114 525.758 109.269 526.569 109.269C527.774 109.269 528.761 108.997 529.529 108.453V109.797C528.558 110.298 527.476 110.549 526.281 110.549C525.566 110.549 524.862 110.426 524.169 110.181C523.476 109.925 522.846 109.567 522.281 109.109C521.716 108.639 521.262 108.037 520.921 107.301C520.58 106.554 520.409 105.733 520.409 104.837Z" fill="#808080"/>
<path d="M539.502 99.1568H540.846V106.261C540.846 107.029 540.718 107.701 540.462 108.277C540.217 108.842 539.87 109.29 539.422 109.621C538.985 109.941 538.494 110.175 537.95 110.325C537.417 110.474 536.825 110.549 536.174 110.549C534.798 110.549 533.673 110.207 532.798 109.525C531.924 108.842 531.486 107.754 531.486 106.261V99.1568H532.83V106.197C532.83 108.245 533.945 109.269 536.174 109.269C538.393 109.269 539.502 108.245 539.502 106.197V99.1568Z" fill="#808080"/>
<path d="M542.989 101.925C542.989 100.975 543.357 100.245 544.093 99.7328C544.829 99.2208 545.741 98.9648 546.829 98.9648C548.141 98.9648 549.272 99.2368 550.221 99.7808V101.125C549.282 100.517 548.184 100.223 546.925 100.245C545.208 100.245 544.349 100.789 544.349 101.877C544.349 102.314 544.514 102.687 544.845 102.997C545.176 103.306 545.586 103.541 546.077 103.701C546.568 103.861 547.101 104.047 547.677 104.261C548.264 104.463 548.802 104.677 549.293 104.901C549.784 105.114 550.194 105.445 550.525 105.893C550.856 106.341 551.021 106.879 551.021 107.509C551.021 108.042 550.904 108.511 550.669 108.917C550.445 109.322 550.136 109.642 549.741 109.877C549.346 110.111 548.909 110.282 548.429 110.389C547.949 110.495 547.432 110.549 546.877 110.549C545.458 110.549 544.178 110.229 543.037 109.589V108.245C544.157 108.927 545.405 109.269 546.781 109.269C548.701 109.269 549.661 108.714 549.661 107.605C549.661 107.199 549.538 106.853 549.293 106.565C549.048 106.266 548.728 106.026 548.333 105.845C547.938 105.663 547.501 105.498 547.021 105.349C546.552 105.199 546.082 105.039 545.613 104.869C545.144 104.687 544.712 104.485 544.317 104.261C543.922 104.026 543.602 103.711 543.357 103.317C543.112 102.922 542.989 102.458 542.989 101.925Z" fill="#808080"/>
<path d="M553.021 99.1568H556.701C558.61 99.1568 560.071 99.6741 561.085 100.709C562.109 101.733 562.621 103.082 562.621 104.757C562.621 106.431 562.109 107.786 561.085 108.821C560.071 109.845 558.61 110.357 556.701 110.357H553.021V99.1568ZM560.093 107.941C560.871 107.183 561.261 106.122 561.261 104.757C561.261 103.391 560.871 102.33 560.093 101.573C559.325 100.815 558.194 100.437 556.701 100.437H554.365V109.077H556.701C558.194 109.077 559.325 108.698 560.093 107.941Z" fill="#808080"/>
<path d="M568.817 99.1568H572.641C575.809 99.1568 577.393 100.362 577.393 102.773C577.393 105.183 575.809 106.389 572.641 106.389H570.161V110.357H568.817V99.1568ZM576.033 102.773C576.033 102.314 575.948 101.93 575.777 101.621C575.607 101.301 575.361 101.061 575.041 100.901C574.732 100.73 574.391 100.613 574.017 100.549C573.644 100.474 573.207 100.437 572.705 100.437H570.161V105.109H572.705C573.74 105.109 574.551 104.938 575.137 104.597C575.735 104.255 576.033 103.647 576.033 102.773Z" fill="#808080"/>
<path d="M578.205 106.517C578.205 105.258 578.589 104.271 579.357 103.557C580.135 102.842 581.026 102.485 582.029 102.485C582.967 102.485 583.741 102.719 584.349 103.189C584.967 103.658 585.373 104.239 585.565 104.933C585.757 105.615 585.767 106.33 585.597 107.077H579.485C579.559 107.834 579.895 108.405 580.493 108.789C581.09 109.173 581.81 109.365 582.653 109.365C583.591 109.365 584.434 109.157 585.181 108.741V109.989C584.466 110.362 583.559 110.549 582.461 110.549C581.245 110.549 580.231 110.202 579.421 109.509C578.61 108.815 578.205 107.818 578.205 106.517ZM584.461 105.957C584.493 105.733 584.477 105.498 584.413 105.253C584.349 105.007 584.231 104.762 584.061 104.517C583.901 104.271 583.65 104.069 583.309 103.909C582.967 103.749 582.567 103.669 582.109 103.669C581.415 103.669 580.813 103.871 580.301 104.277C579.799 104.682 579.527 105.242 579.485 105.957H584.461Z" fill="#808080"/>
<path d="M588.65 104.037C588.949 103.535 589.407 103.146 590.026 102.869C590.645 102.581 591.29 102.463 591.962 102.517V103.797C591.215 103.711 590.554 103.834 589.978 104.165C589.413 104.485 589.013 104.954 588.778 105.573V110.357H587.498V102.677H588.65V104.037Z" fill="#808080"/>
<path d="M594.51 103.957C595.374 102.975 596.408 102.485 597.614 102.485C598.712 102.485 599.624 102.869 600.35 103.637C601.086 104.405 601.454 105.365 601.454 106.517C601.454 107.669 601.086 108.629 600.35 109.397C599.624 110.165 598.712 110.549 597.614 110.549C596.398 110.549 595.406 110.101 594.638 109.205V113.877H593.358V102.677H594.51V103.957ZM599.39 108.581C599.912 108.058 600.174 107.37 600.174 106.517C600.174 105.663 599.912 104.975 599.39 104.453C598.878 103.93 598.238 103.669 597.47 103.669C596.819 103.669 596.243 103.85 595.742 104.213C595.24 104.575 594.872 105.023 594.638 105.557V107.477C594.872 108.01 595.24 108.458 595.742 108.821C596.243 109.183 596.819 109.365 597.47 109.365C598.238 109.365 598.878 109.103 599.39 108.581Z" fill="#808080"/>
<path d="M602.767 106.517C602.767 105.258 603.151 104.271 603.919 103.557C604.698 102.842 605.588 102.485 606.591 102.485C607.53 102.485 608.303 102.719 608.911 103.189C609.53 103.658 609.935 104.239 610.127 104.933C610.319 105.615 610.33 106.33 610.159 107.077H604.047C604.122 107.834 604.458 108.405 605.055 108.789C605.652 109.173 606.372 109.365 607.215 109.365C608.154 109.365 608.996 109.157 609.743 108.741V109.989C609.028 110.362 608.122 110.549 607.023 110.549C605.807 110.549 604.794 110.202 603.983 109.509C603.172 108.815 602.767 107.818 602.767 106.517ZM609.023 105.957C609.055 105.733 609.039 105.498 608.975 105.253C608.911 105.007 608.794 104.762 608.623 104.517C608.463 104.271 608.212 104.069 607.871 103.909C607.53 103.749 607.13 103.669 606.671 103.669C605.978 103.669 605.375 103.871 604.863 104.277C604.362 104.682 604.09 105.242 604.047 105.957H609.023Z" fill="#808080"/>
<path d="M612.495 100.293L613.759 99.9728V102.677H616.831V103.861H613.759V107.829C613.759 108.394 613.887 108.789 614.143 109.013C614.409 109.237 614.831 109.349 615.407 109.349C615.961 109.349 616.527 109.231 617.103 108.997V110.181C616.452 110.415 615.764 110.533 615.039 110.533C614.26 110.533 613.641 110.325 613.183 109.909C612.724 109.482 612.495 108.863 612.495 108.053V103.861H611.055V102.677H612.495V100.293Z" fill="#808080"/>
<path d="M624.289 102.677H625.569V110.357H624.417V109.221C624.14 109.594 623.75 109.909 623.249 110.165C622.758 110.421 622.225 110.549 621.649 110.549C620.657 110.549 619.873 110.266 619.297 109.701C618.732 109.125 618.449 108.362 618.449 107.413V102.677H619.729V107.253C619.729 108.661 620.417 109.365 621.793 109.365C622.774 109.365 623.606 108.853 624.289 107.829V102.677Z" fill="#808080"/>
<path d="M634.176 108.757C634.176 109.151 634.373 109.349 634.768 109.349C634.938 109.349 635.136 109.311 635.36 109.237V110.277C635.04 110.394 634.72 110.453 634.4 110.453C633.664 110.453 633.194 110.143 632.992 109.525C632.17 110.207 631.173 110.549 630 110.549C629.253 110.549 628.613 110.351 628.08 109.957C627.557 109.551 627.296 108.97 627.296 108.213C627.296 107.306 627.632 106.65 628.304 106.245C628.986 105.829 629.808 105.621 630.768 105.621C631.472 105.621 632.181 105.701 632.896 105.861V105.589C632.896 105.002 632.704 104.538 632.32 104.197C631.936 103.845 631.397 103.669 630.704 103.669C629.733 103.669 628.8 103.861 627.904 104.245V102.997C628.906 102.655 629.882 102.485 630.832 102.485C631.877 102.485 632.693 102.767 633.28 103.333C633.877 103.887 634.176 104.693 634.176 105.749V108.757ZM628.608 108.149C628.608 108.575 628.768 108.901 629.088 109.125C629.418 109.338 629.813 109.445 630.272 109.445C631.328 109.445 632.202 109.071 632.896 108.325V106.917C632.17 106.767 631.52 106.693 630.944 106.693C630.293 106.693 629.738 106.81 629.28 107.045C628.832 107.269 628.608 107.637 628.608 108.149Z" fill="#808080"/>
<path d="M636.671 98.6768H637.951V110.357H636.671V98.6768Z" fill="#808080"/>
<path d="M644.63 99.1568H645.974V109.077H652.182V110.357H644.63V99.1568Z" fill="#808080"/>
<path d="M654.03 109.477C653.219 108.751 652.814 107.765 652.814 106.517C652.814 105.269 653.219 104.287 654.03 103.573C654.841 102.847 655.801 102.485 656.91 102.485C658.03 102.485 658.99 102.847 659.79 103.573C660.601 104.287 661.006 105.269 661.006 106.517C661.006 107.765 660.601 108.751 659.79 109.477C658.99 110.191 658.03 110.549 656.91 110.549C655.801 110.549 654.841 110.191 654.03 109.477ZM658.926 108.581C659.459 108.069 659.726 107.381 659.726 106.517C659.726 105.653 659.459 104.97 658.926 104.469C658.393 103.957 657.721 103.701 656.91 103.701C656.099 103.701 655.427 103.957 654.894 104.469C654.361 104.97 654.094 105.653 654.094 106.517C654.094 107.381 654.361 108.069 654.894 108.581C655.427 109.082 656.099 109.333 656.91 109.333C657.721 109.333 658.393 109.082 658.926 108.581Z" fill="#808080"/>
<path d="M663.994 103.813C664.271 103.439 664.655 103.125 665.146 102.869C665.647 102.613 666.186 102.485 666.762 102.485C667.69 102.485 668.453 102.778 669.05 103.365C669.658 103.941 669.962 104.693 669.962 105.621V110.357H668.682V105.781C668.682 105.087 668.49 104.565 668.106 104.213C667.733 103.85 667.237 103.669 666.618 103.669C665.637 103.669 664.805 104.181 664.122 105.205V110.357H662.842V102.677H663.994V103.813Z" fill="#808080"/>
<path d="M672.793 109.397C672.067 108.629 671.705 107.669 671.705 106.517C671.705 105.365 672.067 104.405 672.793 103.637C673.529 102.869 674.446 102.485 675.545 102.485C676.75 102.485 677.785 102.975 678.649 103.957V102.677H679.801V110.357C679.801 111.594 679.395 112.522 678.585 113.141C677.774 113.759 676.782 114.069 675.609 114.069C674.467 114.069 673.427 113.829 672.489 113.349V112.101C673.417 112.623 674.403 112.885 675.449 112.885C676.355 112.885 677.097 112.682 677.673 112.277C678.249 111.882 678.531 111.242 678.521 110.357V109.173C677.774 110.09 676.782 110.549 675.545 110.549C674.446 110.549 673.529 110.165 672.793 109.397ZM678.521 105.557C678.286 105.023 677.918 104.575 677.417 104.213C676.915 103.85 676.339 103.669 675.689 103.669C674.921 103.669 674.275 103.93 673.753 104.453C673.241 104.975 672.985 105.663 672.985 106.517C672.985 107.37 673.241 108.058 673.753 108.581C674.275 109.103 674.921 109.365 675.689 109.365C676.339 109.365 676.915 109.199 677.417 108.869C677.918 108.527 678.286 108.117 678.521 107.637V105.557Z" fill="#808080"/>
<line x1="498.152" y1="17.4429" x2="471.974" y2="43.6213" stroke="#808080" stroke-dasharray="10 10"/>
<line y1="-0.5" x2="37.0218" y2="-0.5" transform="matrix(-0.707107 -0.707107 -0.707107 0.707107 490.798 120.357)" stroke="#808080" stroke-dasharray="10 10"/>
<line x1="681.798" y1="17.5894" x2="497.798" y2="17.5894" stroke="#808080" stroke-dasharray="10 10"/>
<line x1="490.798" y1="119.857" x2="681.799" y2="119.857" stroke="#808080" stroke-dasharray="10 10"/>
</svg>
