<svg width="694" height="155" viewBox="0 0 694 155" fill="none" xmlns="http://www.w3.org/2000/svg">
<path d="M632.458 132.431C633.646 131.081 635.069 130.407 636.726 130.407C638.237 130.407 639.491 130.935 640.488 131.991C641.5 133.047 642.006 134.367 642.006 135.951C642.006 137.535 641.5 138.855 640.488 139.911C639.491 140.967 638.237 141.495 636.726 141.495C635.054 141.495 633.69 140.879 632.634 139.647V146.071H630.874V130.671H632.458V132.431ZM639.168 138.789C639.887 138.07 640.246 137.124 640.246 135.951C640.246 134.777 639.887 133.831 639.168 133.113C638.464 132.394 637.584 132.035 636.528 132.035C635.633 132.035 634.841 132.284 634.152 132.783C633.463 133.281 632.957 133.897 632.634 134.631V137.271C632.957 138.004 633.463 138.62 634.152 139.119C634.841 139.617 635.633 139.867 636.528 139.867C637.584 139.867 638.464 139.507 639.168 138.789Z" fill="black"/>
<path d="M646.122 132.541C646.533 131.851 647.163 131.316 648.014 130.935C648.865 130.539 649.752 130.377 650.676 130.451V132.211C649.649 132.093 648.74 132.262 647.948 132.717C647.171 133.157 646.621 133.802 646.298 134.653V141.231H644.538V130.671H646.122V132.541Z" fill="black"/>
<path d="M654.399 141.231H652.639V130.671H654.399V141.231ZM654.333 126.491C654.553 126.681 654.663 126.953 654.663 127.305C654.663 127.657 654.553 127.935 654.333 128.141C654.113 128.331 653.841 128.427 653.519 128.427C653.196 128.427 652.925 128.331 652.705 128.141C652.485 127.935 652.375 127.657 652.375 127.305C652.375 126.953 652.485 126.681 652.705 126.491C652.925 126.285 653.196 126.183 653.519 126.183C653.841 126.183 654.113 126.285 654.333 126.491Z" fill="black"/>
<path d="M656.982 135.995C656.982 135.071 657.151 134.242 657.488 133.509C657.825 132.775 658.265 132.189 658.808 131.749C659.365 131.309 659.974 130.979 660.634 130.759C661.309 130.524 661.998 130.407 662.702 130.407C664.007 130.407 665.093 130.693 665.958 131.265V132.981C665.151 132.35 664.139 132.035 662.922 132.035C661.778 132.035 660.795 132.365 659.974 133.025C659.153 133.685 658.742 134.66 658.742 135.951C658.742 137.227 659.145 138.202 659.952 138.877C660.773 139.537 661.749 139.867 662.878 139.867C664.051 139.867 665.115 139.581 666.068 139.009V140.769C665.071 141.253 663.927 141.495 662.636 141.495C661.111 141.495 659.783 141.018 658.654 140.065C657.539 139.111 656.982 137.755 656.982 135.995Z" fill="black"/>
<path d="M667.703 135.951C667.703 134.22 668.231 132.863 669.287 131.881C670.357 130.898 671.582 130.407 672.961 130.407C674.251 130.407 675.315 130.729 676.151 131.375C677.001 132.02 677.559 132.819 677.823 133.773C678.087 134.711 678.101 135.694 677.867 136.721H669.463C669.565 137.762 670.027 138.547 670.849 139.075C671.67 139.603 672.66 139.867 673.819 139.867C675.109 139.867 676.268 139.581 677.295 139.009V140.725C676.312 141.238 675.065 141.495 673.555 141.495C671.883 141.495 670.489 141.018 669.375 140.065C668.26 139.111 667.703 137.74 667.703 135.951ZM676.305 135.181C676.349 134.873 676.327 134.55 676.239 134.213C676.151 133.875 675.989 133.538 675.755 133.201C675.535 132.863 675.19 132.585 674.721 132.365C674.251 132.145 673.701 132.035 673.071 132.035C672.117 132.035 671.289 132.313 670.585 132.871C669.895 133.428 669.521 134.198 669.463 135.181H676.305Z" fill="black"/>
<path d="M26.7746 6.01154H28.7326L24.0686 16.5715H22.2206L17.5566 6.01154H19.5146L23.1446 14.5915L26.7746 6.01154Z" fill="black"/>
<path d="M31.2308 15.3615C30.1162 14.3642 29.5588 13.0075 29.5588 11.2915C29.5588 9.57554 30.1162 8.2262 31.2308 7.24354C32.3455 6.2462 33.6655 5.74754 35.1908 5.74754C36.7308 5.74754 38.0508 6.2462 39.1508 7.24354C40.2655 8.2262 40.8228 9.57554 40.8228 11.2915C40.8228 13.0075 40.2655 14.3642 39.1508 15.3615C38.0508 16.3442 36.7308 16.8355 35.1908 16.8355C33.6655 16.8355 32.3455 16.3442 31.2308 15.3615ZM37.9628 14.1295C38.6962 13.4255 39.0628 12.4795 39.0628 11.2915C39.0628 10.1035 38.6962 9.16487 37.9628 8.47554C37.2295 7.77154 36.3055 7.41954 35.1908 7.41954C34.0762 7.41954 33.1522 7.77154 32.4188 8.47554C31.6855 9.16487 31.3188 10.1035 31.3188 11.2915C31.3188 12.4795 31.6855 13.4255 32.4188 14.1295C33.1522 14.8189 34.0762 15.1635 35.1908 15.1635C36.3055 15.1635 37.2295 14.8189 37.9628 14.1295Z" fill="black"/>
<path d="M43.3913 0.511536H45.1513V16.5715H43.3913V0.511536Z" fill="black"/>
<path d="M56.3586 6.01154H58.1186V16.5715H56.5346V15.0095C56.1533 15.5229 55.618 15.9555 54.9286 16.3075C54.254 16.6595 53.5206 16.8355 52.7286 16.8355C51.3646 16.8355 50.2866 16.4469 49.4946 15.6695C48.7173 14.8775 48.3286 13.8289 48.3286 12.5235V6.01154H50.0886V12.3035C50.0886 14.2395 51.0346 15.2075 52.9266 15.2075C54.276 15.2075 55.42 14.5035 56.3586 13.0955V6.01154Z" fill="black"/>
<path d="M63.1327 16.5715H61.3727V6.01154H62.9567V7.41954C63.9981 6.30487 65.2007 5.74754 66.5647 5.74754C68.1341 5.74754 69.2634 6.34154 69.9527 7.52954C71.1114 6.34154 72.3947 5.74754 73.8027 5.74754C75.0787 5.74754 76.0687 6.15087 76.7727 6.95754C77.4767 7.74954 77.8287 8.78354 77.8287 10.0595V16.5715H76.0687V10.0155C76.0687 9.20887 75.8487 8.57087 75.4087 8.10154C74.9687 7.61754 74.3674 7.37554 73.6047 7.37554C72.4754 7.37554 71.4487 7.95487 70.5247 9.11354C70.5687 9.42154 70.5907 9.73687 70.5907 10.0595V16.5715H68.8307V10.0155C68.8307 9.20887 68.6107 8.57087 68.1707 8.10154C67.7307 7.61754 67.1294 7.37554 66.3667 7.37554C65.1934 7.37554 64.1154 8.01354 63.1327 9.28954V16.5715Z" fill="black"/>
<path d="M80.219 11.2915C80.219 9.56087 80.747 8.2042 81.803 7.22154C82.8737 6.23887 84.0983 5.74754 85.477 5.74754C86.7677 5.74754 87.831 6.0702 88.667 6.71554C89.5177 7.36087 90.075 8.1602 90.339 9.11354C90.603 10.0522 90.6177 11.0349 90.383 12.0615H81.979C82.0817 13.1029 82.5437 13.8875 83.365 14.4155C84.1863 14.9435 85.1763 15.2075 86.335 15.2075C87.6257 15.2075 88.7843 14.9215 89.811 14.3495V16.0655C88.8283 16.5789 87.5817 16.8355 86.071 16.8355C84.399 16.8355 83.0057 16.3589 81.891 15.4055C80.7763 14.4522 80.219 13.0809 80.219 11.2915ZM88.821 10.5215C88.865 10.2135 88.843 9.89087 88.755 9.55354C88.667 9.2162 88.5057 8.87887 88.271 8.54154C88.051 8.2042 87.7063 7.92554 87.237 7.70554C86.7677 7.48554 86.2177 7.37554 85.587 7.37554C84.6337 7.37554 83.805 7.6542 83.101 8.21154C82.4117 8.76887 82.0377 9.53887 81.979 10.5215H88.821Z" fill="black"/>
<path d="M1.36621 25.9691H72.1701V51.5992H100.404V74.5336H162.838V84.5674H219.384V112.662H233.033V121.263H276.106V133.062V153.462" stroke="#808080" stroke-width="2"/>
<path d="M692.012 153.462L692.012 25.9691H643.982V35.0292H600.034V49.2891H581.091V96.7951H550.782V104.371H487.134V133.062H443.849H416.926V153.462" stroke="#808080" stroke-width="2"/>
<path d="M73.1221 51.5858H100.353V73.9457" stroke="#808080" stroke-width="2"/>
<path d="M100.354 50.6616L100.354 75.5441" stroke="#26A69A" stroke-width="4"/>
<path d="M163.807 84.5643H219.404V112.101" stroke="#808080" stroke-width="2"/>
<path d="M219.405 83.6033L219.405 113.751" stroke="#26A69A" stroke-width="4"/>
<path d="M233.994 121.27H276.106V153.054" stroke="#808080" stroke-width="2"/>
<path d="M416.939 153.064L416.939 133.054L488.091 133.054" stroke="#808080" stroke-width="2"/>
<path d="M487.127 132.798L487.127 104.368L551.773 104.368" stroke="#808080" stroke-width="2"/>
<path d="M581.133 97.3577L581.133 49.2962L599.074 49.2962" stroke="#808080" stroke-width="2"/>
<path d="M1.36621 2.57159V153.462H692.012" stroke="black" stroke-width="2"/>
<path d="M276.105 120.291L276.105 152.424" stroke="#26A69A" stroke-width="4"/>
<path d="M416.94 132.087L416.94 152.424" stroke="#E30D1A" stroke-width="4"/>
<path d="M487.128 103.454L487.128 133.839" stroke="#E30D1A" stroke-width="4"/>
<path d="M581.113 48.3246L581.113 97.789" stroke="#E30D1A" stroke-width="4"/>
</svg>
