<svg width="39" height="37" viewBox="0 0 39 37" fill="none" xmlns="http://www.w3.org/2000/svg">
<path fill-rule="evenodd" clip-rule="evenodd" d="M28.5058 0.466887C30.6731 0.898331 32.679 1.89858 34.3079 3.3601C35.9368 4.82162 37.1271 6.68914 37.7508 8.76189C38.3286 10.6624 38.4146 12.6731 38.0007 14.6156C37.4025 17.277 35.8971 19.6611 33.7308 21.3779C31.5646 23.0946 28.8658 24.0422 26.0763 24.0656C24.8992 24.0656 23.7274 23.9003 22.6014 23.5669L20.4514 26.0291L19.4328 26.4885H16.8125V30.426L15.4688 31.7385H11.4375V35.676L10.0938 36.9885H2.03125L0.6875 35.676V29.6201L1.07988 28.6935L14.4475 15.6368C14.0681 14.4432 13.8867 13.1981 13.91 11.9486C13.9345 10.2005 14.3535 8.47913 15.1372 6.90728C15.9209 5.33544 17.0499 3.95181 18.4439 2.85504C19.8378 1.75826 21.4623 0.97534 23.2015 0.562091C24.9407 0.148842 26.7519 0.115439 28.5058 0.464262V0.466887ZM32.0479 19.3669C33.7362 18.0316 34.9102 16.1759 35.3778 14.1038L35.3885 14.1169C35.7215 12.6017 35.6616 11.0293 35.2142 9.54257C34.7668 8.05579 33.9462 6.70176 32.8269 5.60352C31.7076 4.50527 30.325 3.69762 28.8049 3.25394C27.2848 2.81027 25.6752 2.74464 24.1225 3.06301C22.0284 3.517 20.1499 4.64226 18.7862 6.25962C17.4226 7.87699 16.6521 9.89347 16.5975 11.988C16.5706 13.185 16.7856 14.3715 17.2398 15.4793L16.9442 16.9046L3.375 30.1635V34.3635H8.75V30.426L10.0938 29.1135H14.125V25.176L15.4688 23.8635H18.8147L21.1689 21.1965L22.6766 20.829C23.7634 21.2438 24.9202 21.4557 26.0871 21.4538C28.2586 21.4375 30.3602 20.7017 32.0479 19.3669ZM29.7958 12.1954C30.0077 11.9094 30.1584 11.5846 30.2388 11.2404C30.3192 10.8962 30.3277 10.5397 30.2638 10.1923C30.1999 9.8448 30.0649 9.5135 29.8668 9.21817C29.6688 8.92285 29.4118 8.66958 29.1112 8.47351C28.8107 8.27744 28.4727 8.1426 28.1176 8.07706C27.7624 8.01152 27.3974 8.01663 27.0443 8.09207C26.6912 8.16752 26.3573 8.31175 26.0626 8.51615C25.7679 8.72054 25.5185 8.9809 25.3292 9.28164C24.9651 9.86015 24.8446 10.554 24.9932 11.2174C25.1418 11.8808 25.5478 12.4622 26.126 12.8393C26.7042 13.2165 27.4095 13.3601 28.0938 13.2401C28.7782 13.12 29.3882 12.7455 29.7958 12.1954Z" fill="#3B3C3D"/>
</svg>
