<svg width="70" height="71" viewBox="0 0 70 71" fill="none" xmlns="http://www.w3.org/2000/svg">
<path fill-rule="evenodd" clip-rule="evenodd" d="M17.4837 12.6582H8.16016V10.4707H19.2387L25.6998 39.5679L27.0772 45.7697H55.2206V47.9572H25.3223L23.5643 40.0422L17.4837 12.6582Z" fill="#3B3C3D"/>
<path fill-rule="evenodd" clip-rule="evenodd" d="M19.1406 15.9609H59.6177L56.1728 40.8984H24.6312V38.7109H54.2667L57.1073 18.1484H19.1406V15.9609Z" fill="#3B3C3D"/>
<path fill-rule="evenodd" clip-rule="evenodd" d="M38.7559 33.5271V21.7656H40.9434V33.5271H38.7559Z" fill="#3B3C3D"/>
<path fill-rule="evenodd" clip-rule="evenodd" d="M34.3652 30.3769L35.912 28.8301L39.8485 32.7665L43.7782 28.8307L45.3262 30.3763L39.8497 35.8613L34.3652 30.3769Z" fill="#3B3C3D"/>
<path fill-rule="evenodd" clip-rule="evenodd" d="M31.8581 52.332C30.2472 52.332 28.9414 53.6379 28.9414 55.2487C28.9414 56.8595 30.2472 58.1654 31.8581 58.1654C33.4689 58.1654 34.7747 56.8595 34.7747 55.2487C34.7747 53.6379 33.4689 52.332 31.8581 52.332ZM26.7539 55.2487C26.7539 52.4297 29.0391 50.1445 31.8581 50.1445C34.677 50.1445 36.9622 52.4297 36.9622 55.2487C36.9622 58.0676 34.677 60.3529 31.8581 60.3529C29.0391 60.3529 26.7539 58.0676 26.7539 55.2487Z" fill="#3B3C3D"/>
<path fill-rule="evenodd" clip-rule="evenodd" d="M47.8991 52.332C46.2883 52.332 44.9824 53.6379 44.9824 55.2487C44.9824 56.8595 46.2883 58.1654 47.8991 58.1654C49.5099 58.1654 50.8158 56.8595 50.8158 55.2487C50.8158 53.6379 49.5099 52.332 47.8991 52.332ZM42.7949 55.2487C42.7949 52.4297 45.0801 50.1445 47.8991 50.1445C50.718 50.1445 53.0033 52.4297 53.0033 55.2487C53.0033 58.0676 50.718 60.3529 47.8991 60.3529C45.0801 60.3529 42.7949 58.0676 42.7949 55.2487Z" fill="#3B3C3D"/>
</svg>
