<svg width="70" height="71" viewBox="0 0 70 71" fill="none" xmlns="http://www.w3.org/2000/svg">
<path fill-rule="evenodd" clip-rule="evenodd" d="M39.1555 6.03711L54.7221 7.0414L64.0371 15.4524L62.9351 32.9532L32.2964 63.3803L6.66602 38.5266L39.1555 6.03711ZM40.0024 8.2838L9.78359 38.5026L32.2782 60.3156L60.8041 31.9865L61.7875 16.3685L53.8213 9.17534L40.0024 8.2838Z" fill="#3B3C3D"/>
<path fill-rule="evenodd" clip-rule="evenodd" d="M14.9336 37.7031L35.8514 16.7853L53.5158 34.4497L32.598 55.3675L14.9336 37.7031ZM18.0272 37.7031L32.598 52.2739L50.4222 34.4497L35.8514 19.8789L18.0272 37.7031Z" fill="#3B3C3D"/>
<path fill-rule="evenodd" clip-rule="evenodd" d="M34.3372 27.6934C33.5318 27.6934 32.8789 28.3463 32.8789 29.1517C32.8789 29.9571 33.5318 30.61 34.3372 30.61C35.1427 30.61 35.7956 29.9571 35.7956 29.1517C35.7956 28.3463 35.1427 27.6934 34.3372 27.6934ZM30.6914 29.1517C30.6914 27.1382 32.3237 25.5059 34.3372 25.5059C36.3508 25.5059 37.9831 27.1382 37.9831 29.1517C37.9831 31.1652 36.3508 32.7975 34.3372 32.7975C32.3237 32.7975 30.6914 31.1652 30.6914 29.1517Z" fill="#3B3C3D"/>
<path fill-rule="evenodd" clip-rule="evenodd" d="M52.3392 17.0039C51.5338 17.0039 50.8809 17.6568 50.8809 18.4622C50.8809 19.2677 51.5338 19.9206 52.3392 19.9206C53.1446 19.9206 53.7975 19.2677 53.7975 18.4622C53.7975 17.6568 53.1446 17.0039 52.3392 17.0039ZM48.6934 18.4622C48.6934 16.4487 50.3257 14.8164 52.3392 14.8164C54.3527 14.8164 55.985 16.4487 55.985 18.4622C55.985 20.4758 54.3527 22.1081 52.3392 22.1081C50.3257 22.1081 48.6934 20.4758 48.6934 18.4622Z" fill="#3B3C3D"/>
<path fill-rule="evenodd" clip-rule="evenodd" d="M34.3372 41.5488C33.5318 41.5488 32.8789 42.2017 32.8789 43.0072C32.8789 43.8126 33.5318 44.4655 34.3372 44.4655C35.1427 44.4655 35.7956 43.8126 35.7956 43.0072C35.7956 42.2017 35.1427 41.5488 34.3372 41.5488ZM30.6914 43.0072C30.6914 40.9936 32.3237 39.3613 34.3372 39.3613C36.3508 39.3613 37.9831 40.9936 37.9831 43.0072C37.9831 45.0207 36.3508 46.653 34.3372 46.653C32.3237 46.653 30.6914 45.0207 30.6914 43.0072Z" fill="#3B3C3D"/>
<path fill-rule="evenodd" clip-rule="evenodd" d="M43.7065 34.9552L25.4773 39.3302L24.9668 37.2031L43.196 32.8281L43.7065 34.9552Z" fill="#3B3C3D"/>
</svg>
