<svg width="398" height="291" viewBox="0 0 398 291" fill="none" xmlns="http://www.w3.org/2000/svg">
<path d="M104.256 0.984989L123.333 0.932664L123.34 3.58228L115.193 3.60462L115.249 24.1391L112.467 24.1467L112.411 3.61225L104.263 3.6346L104.256 0.984989Z" fill="black"/>
<path d="M124.924 11.03C125.54 9.99056 126.487 9.18203 127.766 8.60444C129.045 8.00476 130.38 7.75822 131.772 7.8648L131.779 10.5144C130.233 10.342 128.865 10.5997 127.674 11.2874C126.506 11.9531 125.68 12.9268 125.198 14.2088L125.225 24.1117L122.576 24.119L122.532 8.22135L124.917 8.21481L124.924 11.03Z" fill="black"/>
<path d="M147.418 20.7388C147.421 21.5558 147.83 21.9632 148.647 21.9609C149 21.96 149.409 21.8816 149.872 21.7257L149.878 23.8785C149.216 24.1232 148.554 24.2465 147.892 24.2483C146.368 24.2525 145.395 23.6148 144.972 22.3353C143.275 23.7531 141.213 24.4653 138.784 24.472C137.239 24.4762 135.913 24.0714 134.806 23.2575C133.722 22.4214 133.178 21.2195 133.174 19.6518C133.168 17.775 133.86 16.4152 135.249 15.5723C136.66 14.7073 138.359 14.2721 140.346 14.2666C141.803 14.2626 143.272 14.4242 144.752 14.7514L144.751 14.1883C144.747 12.9739 144.347 12.0145 143.55 11.3101C142.754 10.5837 141.638 10.2224 140.202 10.2263C138.193 10.2319 136.262 10.6346 134.41 11.4346L134.403 8.8512C136.476 8.13894 138.495 7.78012 140.461 7.77473C142.624 7.76879 144.315 8.34928 145.533 9.5162C146.772 10.661 147.395 12.3263 147.401 14.5123L147.418 20.7388ZM135.889 19.5119C135.891 20.3951 136.225 21.0676 136.888 21.5295C137.574 21.9692 138.391 22.1878 139.341 22.1852C141.527 22.1792 143.335 21.4014 144.766 19.8519L144.758 16.9373C143.256 16.6323 141.909 16.4814 140.716 16.4847C139.369 16.4884 138.222 16.7344 137.274 17.2228C136.348 17.689 135.886 18.452 135.889 19.5119Z" fill="black"/>
<path d="M165.479 0.817066L168.128 0.809799L168.192 23.9939L165.807 24.0004L165.8 21.3508C164.017 23.3871 161.878 24.4087 159.383 24.4155C157.109 24.4217 155.208 23.6321 153.68 22.0465C152.174 20.4608 151.418 18.4757 151.411 16.091C151.405 13.7064 152.15 11.7171 153.647 10.1232C155.166 8.52928 157.063 7.72919 159.337 7.72295C161.854 7.71605 163.91 8.63778 165.505 10.4881L165.479 0.817066ZM165.515 14.0651C165.026 12.9625 164.262 12.0372 163.222 11.2893C162.182 10.5414 160.989 10.1693 159.642 10.173C158.052 10.1774 156.718 10.722 155.639 11.8069C154.582 12.8917 154.056 14.3174 154.061 16.0838C154.066 17.8502 154.6 19.2729 155.662 20.3519C156.747 21.4309 158.085 21.9682 159.674 21.9638C161.021 21.9601 162.213 21.5815 163.248 20.8279C164.284 20.0743 165.043 19.1449 165.526 18.0395L165.515 14.0651Z" fill="black"/>
<path d="M175.813 23.973L173.163 23.9803L173.119 8.0826L175.769 8.07533L175.813 23.973ZM175.652 1.78277C175.984 2.06891 176.151 2.47694 176.153 3.00686C176.154 3.53678 175.99 3.95676 175.659 4.26678C175.329 4.55473 174.921 4.69938 174.435 4.70071C173.949 4.70204 173.54 4.55964 173.208 4.27351C172.876 3.96529 172.71 3.54623 172.708 3.0163C172.707 2.48638 172.871 2.07745 173.202 1.7895C173.532 1.47947 173.94 1.32379 174.426 1.32245C174.911 1.32112 175.32 1.47456 175.652 1.78277Z" fill="black"/>
<path d="M183.142 10.4067C183.714 9.63228 184.507 8.97873 185.521 8.44602C186.558 7.91326 187.672 7.64524 188.864 7.64197C190.785 7.6367 192.366 8.23957 193.606 9.45058C194.867 10.6395 195.501 12.1944 195.506 14.1153L195.533 23.9189L192.883 23.9262L192.857 14.4538C192.854 13.0186 192.453 11.9378 191.656 11.2113C190.881 10.4627 189.854 10.0902 188.573 10.0937C186.542 10.0992 184.822 11.1638 183.415 13.2874L183.444 23.9521L180.795 23.9593L180.751 8.06166L183.136 8.05512L183.142 10.4067Z" fill="black"/>
<path d="M201.387 21.9156C199.881 20.33 199.125 18.3448 199.119 15.9602C199.112 13.5755 199.857 11.5863 201.354 9.99238C202.874 8.39843 204.77 7.59834 207.044 7.5921C209.54 7.58526 211.684 8.59507 213.478 10.6215L213.471 7.97192L215.856 7.96538L215.899 23.863C215.906 26.4243 215.072 28.3476 213.398 29.6329C211.723 30.9181 209.672 31.5641 207.243 31.5707C204.88 31.5772 202.726 31.0863 200.78 30.098L200.773 27.5147C202.697 28.5913 204.741 29.1267 206.905 29.1207C208.782 29.1156 210.315 28.6919 211.505 27.8495C212.695 27.0293 213.277 25.7029 213.25 23.8703L213.243 21.4194C211.702 23.3226 209.652 24.2776 207.09 24.2847C204.816 24.2909 202.915 23.5012 201.387 21.9156ZM213.222 13.9343C212.733 12.8316 211.969 11.9063 210.929 11.1584C209.89 10.4106 208.696 10.0385 207.349 10.0422C205.76 10.0465 204.425 10.5912 203.346 11.6761C202.289 12.7609 201.763 14.1865 201.768 15.9529C201.773 17.7193 202.307 19.142 203.37 20.2211C204.455 21.3 205.792 21.8373 207.382 21.8329C208.729 21.8293 209.92 21.4837 210.956 20.7964C211.992 20.087 212.751 19.2348 213.234 18.2399L213.222 13.9343Z" fill="black"/>
<path d="M229.408 2.99327L232.022 2.32369L232.038 7.92099L238.397 7.90355L238.403 10.3544L232.044 10.3719L232.067 18.5857C232.07 19.7559 232.337 20.5722 232.868 21.0344C233.422 21.4966 234.294 21.726 235.487 21.7227C236.635 21.7196 237.805 21.4735 238.996 20.9845L239.002 23.4354C237.657 23.9248 236.233 24.1716 234.732 24.1757C233.12 24.1801 231.838 23.7531 230.886 22.8946C229.934 22.014 229.456 20.7346 229.452 19.0565L229.428 10.3791L226.447 10.3872L226.44 7.93635L229.421 7.92817L229.408 2.99327Z" fill="black"/>
<path d="M243.408 21.966C241.726 20.4691 240.882 18.429 240.874 15.8457C240.867 13.2623 241.701 11.2286 243.375 9.74464C245.049 8.23859 247.034 7.48242 249.33 7.47612C251.649 7.46976 253.638 8.21503 255.298 9.71194C256.98 11.1867 257.825 13.2158 257.832 15.7991C257.839 18.3825 257.006 20.4272 255.332 21.9333C253.68 23.4172 251.695 24.1623 249.376 24.1687C247.08 24.175 245.091 23.4407 243.408 21.966ZM253.538 20.0834C254.639 19.0206 255.187 17.5949 255.182 15.8064C255.177 14.0179 254.622 12.6063 253.515 11.5716C252.408 10.5148 251.015 9.98865 249.337 9.99325C247.659 9.99785 246.27 10.5316 245.168 11.5945C244.067 12.6353 243.519 14.0499 243.524 15.8384C243.529 17.6269 244.085 19.0495 245.192 20.1063C246.299 21.1411 247.691 21.6561 249.369 21.6515C251.047 21.6469 252.437 21.1242 253.538 20.0834Z" fill="black"/>
<path d="M269.838 0.530827L272.488 0.52356L272.515 10.1946C274.099 8.33555 276.15 7.40256 278.667 7.39565C280.942 7.38942 282.832 8.17912 284.337 9.76477C285.865 11.3504 286.632 13.3355 286.639 15.7201C286.646 18.1048 285.889 20.0941 284.37 21.688C282.873 23.2819 280.987 24.082 278.713 24.0882C276.218 24.095 274.073 23.0852 272.279 21.0588L272.287 23.7084L269.902 23.7149L269.838 0.530827ZM282.378 20.0043C283.457 18.9195 283.994 17.4938 283.989 15.7274C283.985 13.961 283.44 12.5383 282.355 11.4593C281.292 10.3803 279.966 9.843 278.376 9.84736C277.029 9.85106 275.838 10.2297 274.802 10.9833C273.766 11.7368 273.007 12.6663 272.524 13.7716L272.535 17.746C273.024 18.8487 273.788 19.774 274.828 20.5219C275.868 21.2697 277.061 21.6418 278.408 21.6381C279.998 21.6338 281.321 21.0892 282.378 20.0043Z" fill="black"/>
<path d="M289.358 15.7127C289.351 13.1072 290.14 11.0626 291.726 9.5789C293.334 8.09511 295.175 7.35038 297.251 7.34468C299.194 7.33935 300.796 7.82072 302.057 8.7888C303.341 9.75681 304.183 10.9579 304.584 12.392C304.986 13.804 305.012 15.2833 304.663 16.8299L292.011 16.8646C292.17 18.4319 292.868 19.6112 294.107 20.4027C295.346 21.1942 296.837 21.5876 298.582 21.5828C300.525 21.5775 302.268 21.1421 303.811 20.2768L303.818 22.8601C302.341 23.637 300.465 24.0285 298.191 24.0348C295.674 24.0417 293.574 23.3298 291.892 21.8992C290.21 20.4686 289.365 18.4064 289.358 15.7127ZM302.305 14.5179C302.37 14.0541 302.335 13.5684 302.201 13.0609C302.068 12.5535 301.823 12.0463 301.469 11.5394C301.136 11.0325 300.616 10.6144 299.909 10.2851C299.201 9.95584 298.373 9.79251 297.423 9.79512C295.988 9.79905 294.742 10.222 293.684 11.0639C292.649 11.9058 292.089 13.0666 292.004 14.5462L302.305 14.5179Z" fill="black"/>
<path d="M0.941442 61.2762C0.937313 59.7709 1.29059 58.4658 2.00127 57.3608C2.71191 56.2429 3.59855 55.423 4.6612 54.901C5.72384 54.379 6.86505 54.1163 8.08484 54.113C9.48629 54.1092 10.7653 54.4106 11.9219 55.0173L11.9264 56.6524C10.9383 55.9933 9.75009 55.6656 8.36161 55.6694C6.80444 55.6737 5.45621 56.1575 4.31692 57.1209C3.17759 58.0713 2.60393 59.4549 2.59594 61.2716C2.5991 62.4265 2.89381 63.4249 3.48007 64.2668C4.0793 65.1086 4.80765 65.7165 5.66513 66.0905C6.53558 66.4644 7.46391 66.65 8.45012 66.6473C9.91645 66.6433 11.1159 66.3091 12.0484 65.6448L12.0528 67.2798C10.8737 67.8929 9.55739 68.2015 8.10403 68.2055C7.23461 68.2078 6.37775 68.061 5.53346 67.7648C4.68914 67.4557 3.92234 67.0231 3.23306 66.467C2.54374 65.8979 1.99023 65.1663 1.57253 64.272C1.1548 63.3648 0.944432 62.3662 0.941442 61.2762Z" fill="black"/>
<path d="M13.3007 63.2861C13.2965 61.7549 13.7604 60.5533 14.6923 59.6813C15.6372 58.8093 16.7195 58.3716 17.9393 58.3682C19.0812 58.3651 20.0228 58.648 20.764 59.2169C21.5182 59.7858 22.0133 60.4917 22.2492 61.3345C22.485 62.1644 22.5004 63.0338 22.2952 63.9427L14.8597 63.9631C14.9531 64.8841 15.3638 65.5773 16.0917 66.0424C16.8197 66.5076 17.6962 66.7388 18.7214 66.7359C19.8633 66.7328 20.8878 66.477 21.7947 65.9684L21.7989 67.4866C20.9307 67.9432 19.8283 68.1733 18.4918 68.177C17.0124 68.181 15.7785 67.7627 14.79 66.9219C13.8015 66.0811 13.3051 64.8692 13.3007 63.2861ZM20.9095 62.5839C20.9477 62.3113 20.9274 62.0259 20.8488 61.7277C20.7701 61.4294 20.6265 61.1313 20.4181 60.8335C20.2226 60.5355 19.917 60.2898 19.5012 60.0963C19.0854 59.9028 18.5986 59.8068 18.0406 59.8083C17.1971 59.8107 16.4646 60.0592 15.8431 60.554C15.2346 61.0488 14.9055 61.731 14.856 62.6005L20.9095 62.5839Z" fill="black"/>
<path d="M25.9992 59.9617C26.3353 59.5066 26.8015 59.1225 27.3975 58.8094C28.0066 58.4963 28.6614 58.3388 29.3622 58.3369C30.4911 58.3338 31.4199 58.6881 32.1485 59.3998C32.8901 60.0985 33.2625 61.0123 33.2656 62.1413L33.2814 67.9028L31.7242 67.9071L31.7089 62.3402C31.7066 61.4967 31.4713 60.8615 31.003 60.4346C30.5476 59.9946 29.9436 59.7757 29.1909 59.7778C27.9971 59.781 26.9866 60.4067 26.1596 61.6547L26.1768 67.9223L24.6196 67.9266L24.594 58.5836L25.9954 58.5797L25.9992 59.9617Z" fill="black"/>
<path d="M36.5189 55.6506L38.0555 55.2571L38.0646 58.5466L41.8018 58.5364L41.8057 59.9767L38.0685 59.987L38.0818 64.8142C38.0836 65.502 38.2407 65.9817 38.5529 66.2533C38.878 66.5249 39.391 66.6598 40.0917 66.6579C40.7665 66.656 41.4538 66.5114 42.1538 66.224L42.1577 67.6644C41.3669 67.952 40.5303 68.0971 39.6479 68.0995C38.7007 68.1021 37.9473 67.8511 37.388 67.3465C36.8286 66.829 36.5475 66.0772 36.5448 65.0909L36.5308 59.9912L34.779 59.996L34.775 58.5556L36.5269 58.5508L36.5189 55.6506Z" fill="black"/>
<path d="M45.2935 60.1813C45.6552 59.5704 46.2119 59.0952 46.9636 58.7558C47.7153 58.4033 48.4999 58.2585 49.3176 58.3211L49.3219 59.8783C48.4133 59.7769 47.6091 59.9284 46.9095 60.3326C46.2228 60.7237 45.7378 61.296 45.4544 62.0495L45.4703 67.8694L43.9132 67.8737L43.8875 58.5306L45.289 58.5268L45.2935 60.1813Z" fill="black"/>
<path d="M58.5131 65.8871C58.5145 66.3673 58.7552 66.6067 59.2353 66.6054C59.4429 66.6048 59.6829 66.5587 59.9551 66.4671L59.9586 67.7323C59.5697 67.8761 59.1806 67.9486 58.7913 67.9496C57.8959 67.9521 57.3239 67.5773 57.0753 66.8254C56.0784 67.6586 54.8663 68.0772 53.4389 68.0811C52.5305 68.0836 51.7513 67.8457 51.1011 67.3673C50.4639 66.876 50.1441 66.1696 50.1415 65.2483C50.1385 64.1453 50.5451 63.3461 51.3612 62.8508C52.1903 62.3424 53.1888 62.0866 54.3567 62.0834C55.2132 62.0811 56.0764 62.176 56.9463 62.3683L56.9454 62.0374C56.9434 61.3237 56.7083 60.7599 56.24 60.3459C55.7717 59.919 55.1158 59.7067 54.2723 59.709C53.0915 59.7122 51.9567 59.9489 50.8679 60.419L50.8638 58.9008C52.0824 58.4822 53.2692 58.2713 54.4241 58.2682C55.6958 58.2647 56.6894 58.6058 57.405 59.2916C58.1336 59.9644 58.4996 60.9431 58.5031 62.2278L58.5131 65.8871ZM51.7374 65.1661C51.7388 65.6851 51.9346 66.0804 52.3246 66.3518C52.7276 66.6102 53.2081 66.7387 53.7661 66.7371C55.0507 66.7336 56.1136 66.2765 56.9545 65.3659L56.9498 63.653C56.0669 63.4737 55.2751 63.3851 54.5744 63.387C53.7828 63.3892 53.1085 63.5337 52.5513 63.8208C52.007 64.0948 51.7357 64.5432 51.7374 65.1661Z" fill="black"/>
<path d="M61.5149 53.6161L63.0721 53.6118L63.1111 67.821L61.5539 67.8253L61.5149 53.6161Z" fill="black"/>
<path d="M67.6351 67.8086L66.0779 67.8129L66.0523 58.4698L67.6095 58.4656L67.6351 67.8086ZM67.5409 54.7674C67.736 54.9356 67.834 55.1754 67.8349 55.4868C67.8357 55.7983 67.7391 56.0451 67.5449 56.2273C67.3507 56.3965 67.1109 56.4815 66.8254 56.4823C66.5399 56.4831 66.2996 56.3994 66.1045 56.2312C65.9094 56.0501 65.8114 55.8038 65.8105 55.4924C65.8097 55.181 65.9063 54.9406 66.1005 54.7714C66.2947 54.5892 66.5345 54.4977 66.82 54.4969C67.1055 54.4961 67.3458 54.5863 67.5409 54.7674Z" fill="black"/>
<path d="M70.0313 58.4589L77.1164 58.4395L77.1202 59.8215L71.6493 66.4351L77.5081 66.419L77.5119 67.7815L69.8233 67.8026L69.8195 66.4206L75.2905 59.807L70.035 59.8215L70.0313 58.4589Z" fill="black"/>
<path d="M78.7848 63.1065C78.7806 61.5752 79.2444 60.3736 80.1764 59.5017C81.1213 58.6296 82.2036 58.192 83.4234 58.1886C84.5653 58.1855 85.5069 58.4684 86.2481 59.0373C87.0023 59.6062 87.4973 60.3121 87.7332 61.1549C87.9691 61.9848 87.9845 62.8541 87.7793 63.7631L80.3438 63.7835C80.4372 64.7045 80.8479 65.3977 81.5758 65.8628C82.3038 66.328 83.1803 66.5591 84.2055 66.5563C85.3474 66.5532 86.3718 66.2973 87.2788 65.7888L87.283 67.307C86.4148 67.7636 85.3124 67.9937 83.9758 67.9974C82.4965 68.0014 81.2626 67.5831 80.2741 66.7423C79.2856 65.9015 78.7891 64.6896 78.7848 63.1065ZM86.3936 62.4043C86.4318 62.1317 86.4115 61.8463 86.3328 61.548C86.2542 61.2498 86.1106 60.9517 85.9022 60.6538C85.7067 60.3559 85.4011 60.1102 84.9853 59.9167C84.5695 59.7232 84.0826 59.6272 83.5247 59.6287C82.6812 59.631 81.9487 59.8796 81.3272 60.3744C80.7186 60.8692 80.3896 61.5514 80.3401 62.4209L86.3936 62.4043Z" fill="black"/>
<path d="M97.7159 54.1007L99.2731 54.0965L99.3104 67.7217L97.909 67.7256L97.9047 66.1684C96.8569 67.3651 95.5998 67.9655 94.1335 67.9695C92.7969 67.9732 91.6797 67.5091 90.7817 66.5772C89.8968 65.6453 89.4524 64.4787 89.4485 63.0772C89.4447 61.6758 89.8827 60.5067 90.7625 59.57C91.6553 58.6332 92.77 58.163 94.1066 58.1593C95.5859 58.1553 96.7942 58.697 97.7315 59.7844L97.7159 54.1007ZM97.7373 61.8866C97.45 61.2386 97.0008 60.6948 96.3897 60.2552C95.7786 59.8157 95.0773 59.597 94.2857 59.5992C93.3514 59.6018 92.5672 59.9219 91.9331 60.5594C91.312 61.197 91.0028 62.0348 91.0057 63.0729C91.0085 64.1111 91.3223 64.9472 91.9469 65.5813C92.5845 66.2154 93.3704 66.5312 94.3047 66.5286C95.0963 66.5265 95.7964 66.3039 96.4051 65.8611C97.0138 65.4182 97.46 64.872 97.7437 64.2224L97.7373 61.8866Z" fill="black"/>
<path d="M4.05514 88.3115C4.05094 86.7803 4.5148 85.5787 5.44672 84.7067C6.39161 83.8347 7.47395 83.397 8.69374 83.3937C9.83566 83.3905 10.7772 83.6734 11.5185 84.2424C12.2727 84.8113 12.7677 85.5171 13.0036 86.36C13.2394 87.1898 13.2548 88.0592 13.0497 88.9681L5.61418 88.9885C5.70754 89.9096 6.1182 90.6027 6.84617 91.0679C7.57413 91.533 8.45068 91.7642 9.47581 91.7614C10.6177 91.7583 11.6422 91.5024 12.5491 90.9938L12.5533 92.5121C11.6851 92.9686 10.5828 93.1988 9.24619 93.2024C7.76688 93.2065 6.53296 92.7881 5.54444 91.9474C4.55592 91.1066 4.05948 89.8947 4.05514 88.3115ZM11.6639 87.6094C11.7021 87.3368 11.6819 87.0514 11.6032 86.7531C11.5245 86.4549 11.381 86.1568 11.1725 85.8589C10.9771 85.561 10.6714 85.3153 10.2557 85.1218C9.83988 84.9283 9.353 84.8323 8.79501 84.8338C7.95154 84.8361 7.21905 85.0847 6.59754 85.5795C5.989 86.0743 5.65997 86.7564 5.61044 87.626L11.6639 87.6094Z" fill="black"/>
<path d="M21.0362 83.5934L22.8269 83.5885L19.4136 88.1332L23.0472 92.931L21.2565 92.9359L18.5213 89.2451L15.7869 92.9509L13.9961 92.9558L17.6228 88.1381L14.1652 83.6123L15.9559 83.6073L18.5152 87.0456L21.0362 83.5934Z" fill="black"/>
<path d="M23.6339 88.2968C23.6317 87.4792 23.7789 86.7457 24.0756 86.096C24.3723 85.4464 24.7601 84.9263 25.2392 84.5357C25.7312 84.145 26.269 83.8516 26.8524 83.6553C27.4487 83.4461 28.0583 83.3406 28.6812 83.3389C29.8361 83.3357 30.797 83.5861 31.564 84.0901L31.5682 85.6083C30.853 85.0523 29.9568 84.7758 28.8798 84.7787C27.8676 84.7815 26.999 85.0758 26.2739 85.6618C25.5488 86.2477 25.1879 87.1116 25.191 88.2536C25.1941 89.3825 25.5533 90.2445 26.2687 90.8394C26.9969 91.4214 27.8607 91.711 28.8599 91.7082C29.898 91.7054 30.8381 91.4498 31.6802 90.9414L31.6844 92.4985C30.8032 92.9292 29.7916 93.1461 28.6497 93.1492C27.3002 93.1529 26.1246 92.7344 25.1231 91.8937C24.1346 91.0529 23.6382 89.8539 23.6339 88.2968Z" fill="black"/>
<path d="M33.8509 79.276L35.408 79.2717L35.423 84.7413C35.7853 84.338 36.245 83.9994 36.8023 83.7253C37.3725 83.4513 37.982 83.3133 38.6308 83.3116C39.7598 83.3085 40.6886 83.6628 41.4172 84.3745C42.1588 85.0732 42.5311 85.987 42.5342 87.116L42.55 92.8775L40.9928 92.8818L40.9776 87.3149C40.9753 86.4714 40.7399 85.8362 40.2716 85.4093C39.8162 84.9693 39.2122 84.7504 38.4596 84.7524C37.2658 84.7557 36.2553 85.3814 35.4282 86.6294L35.4454 92.897L33.8882 92.9013L33.8509 79.276Z" fill="black"/>
<path d="M52.8982 90.9026C52.8995 91.3828 53.1402 91.6222 53.6204 91.6208C53.828 91.6203 54.0679 91.5742 54.3402 91.4826L54.3436 92.7478C53.9547 92.8916 53.5656 92.9641 53.1764 92.9651C52.281 92.9676 51.709 92.5928 51.4604 91.8409C50.4635 92.6741 49.2513 93.0927 47.8239 93.0966C46.9155 93.0991 46.1363 92.8612 45.4862 92.3828C44.849 91.8915 44.5291 91.1851 44.5266 90.2638C44.5236 89.1608 44.9301 88.3616 45.7463 87.8663C46.5754 87.3579 47.5739 87.1021 48.7418 87.0989C49.5982 87.0966 50.4614 87.1915 51.3314 87.3838L51.3304 87.0529C51.3285 86.3392 51.0934 85.7754 50.6251 85.3614C50.1567 84.9345 49.5009 84.7221 48.6574 84.7245C47.4765 84.7277 46.3417 84.9644 45.253 85.4345L45.2488 83.9163C46.4675 83.4977 47.6542 83.2868 48.8092 83.2837C50.0808 83.2802 51.0745 83.6213 51.7901 84.3071C52.5186 84.9799 52.8846 85.9586 52.8881 87.2433L52.8982 90.9026ZM46.1225 90.1816C46.1239 90.7006 46.3196 91.0959 46.7097 91.3673C47.1126 91.6257 47.5931 91.7542 48.1511 91.7526C49.4358 91.7491 50.4986 91.292 51.3396 90.3814L51.3349 88.6685C50.452 88.4892 49.6602 88.4006 48.9594 88.4025C48.1679 88.4046 47.4935 88.5492 46.9363 88.8363C46.392 89.1103 46.1208 89.5587 46.1225 90.1816Z" fill="black"/>
<path d="M57.2796 84.876C57.6158 84.4209 58.0819 84.0368 58.6779 83.7237C59.287 83.4106 59.9419 83.2531 60.6426 83.2512C61.7715 83.2481 62.7003 83.6024 63.429 84.3141C64.1705 85.0128 64.5429 85.9266 64.546 87.0556L64.5618 92.8171L63.0046 92.8214L62.9893 87.2545C62.987 86.411 62.7517 85.7758 62.2834 85.3489C61.828 84.9089 61.224 84.69 60.4714 84.6921C59.2775 84.6953 58.2671 85.321 57.44 86.569L57.4572 92.8366L55.9 92.8409L55.8744 83.4979L57.2758 83.494L57.2796 84.876Z" fill="black"/>
<path d="M68.0021 91.6398C67.1172 90.7079 66.6728 89.5412 66.6689 88.1398C66.6651 86.7383 67.1031 85.5692 67.9829 84.6325C68.8757 83.6958 69.9904 83.2256 71.327 83.2219C72.7933 83.2179 74.0537 83.8113 75.1081 85.0023L75.1038 83.4451L76.5052 83.4413L76.5309 92.7843C76.535 94.2896 76.045 95.4199 75.0608 96.1752C74.0767 96.9305 72.8709 97.3102 71.4435 97.3141C70.055 97.3179 68.789 97.0294 67.6455 96.4486L67.6413 94.9303C68.772 95.5631 69.9732 95.8777 71.2449 95.8742C72.3479 95.8712 73.2491 95.6222 73.9485 95.1272C74.6479 94.6451 74.9896 93.8656 74.9737 92.7886L74.9697 91.3482C74.0645 92.4666 72.8592 93.0279 71.3539 93.0321C70.0173 93.0357 68.9001 92.5716 68.0021 91.6398ZM74.9577 86.9492C74.6704 86.3011 74.2212 85.7573 73.6101 85.3178C72.999 84.8783 72.2977 84.6596 71.5061 84.6618C70.5718 84.6644 69.7876 84.9844 69.1535 85.622C68.5324 86.2596 68.2233 87.0974 68.2261 88.1355C68.229 89.1736 68.5427 90.0098 69.1673 90.6439C69.8049 91.278 70.5908 91.5938 71.5251 91.5912C72.3167 91.589 73.0169 91.386 73.6257 90.982C74.2344 90.5651 74.6807 90.0643 74.9646 89.4796L74.9577 86.9492Z" fill="black"/>
<path d="M78.7583 88.1066C78.7541 86.5754 79.218 85.3738 80.1499 84.5018C81.0948 83.6298 82.1771 83.1921 83.3969 83.1888C84.5388 83.1857 85.4804 83.4686 86.2216 84.0375C86.9758 84.6064 87.4709 85.3122 87.7068 86.1551C87.9426 86.9849 87.958 87.8543 87.7528 88.7632L80.3174 88.7836C80.4107 89.7047 80.8214 90.3978 81.5493 90.863C82.2773 91.3281 83.1538 91.5593 84.179 91.5565C85.3209 91.5534 86.3454 91.2975 87.2523 90.7889L87.2565 92.3072C86.3883 92.7637 85.2859 92.9939 83.9494 92.9975C82.47 93.0016 81.2361 92.5832 80.2476 91.7425C79.2591 90.9017 78.7627 89.6898 78.7583 88.1066ZM86.3671 87.4045C86.4053 87.1319 86.3851 86.8465 86.3064 86.5482C86.2277 86.25 86.0841 85.9519 85.8757 85.654C85.6802 85.3561 85.3746 85.1104 84.9588 84.9169C84.5431 84.7234 84.0562 84.6274 83.4982 84.6289C82.6547 84.6312 81.9222 84.8798 81.3007 85.3746C80.6922 85.8694 80.3631 86.5515 80.3136 87.4211L86.3671 87.4045Z" fill="black"/>
<path d="M89.5133 85.8581C89.5108 84.9628 89.8529 84.2935 90.5394 83.8505C91.2389 83.3944 92.0817 83.165 93.0679 83.1623C94.2747 83.1589 95.3785 83.4219 96.3791 83.9512L96.3832 85.4305C95.9932 85.1721 95.4995 84.9658 94.9022 84.8117C94.3048 84.6447 93.7271 84.5619 93.1691 84.5634C92.5981 84.565 92.1053 84.6702 91.6907 84.8789C91.2889 85.0747 91.0886 85.3867 91.0898 85.8149C91.0907 86.1263 91.2341 86.3984 91.5203 86.6312C91.8193 86.851 92.1896 87.0187 92.6311 87.1343C93.0727 87.2499 93.5467 87.3978 94.0533 87.5781C94.5728 87.7453 95.0534 87.9257 95.4952 88.1191C95.9369 88.2996 96.301 88.5841 96.5875 88.9726C96.887 89.3481 97.0375 89.8018 97.039 90.3339C97.0415 91.2422 96.68 91.9115 95.9544 92.3417C95.2289 92.759 94.3081 92.9691 93.1922 92.9722C91.7258 92.9762 90.5182 92.6746 89.5692 92.0673L89.5651 90.549C90.5531 91.2081 91.7349 91.5358 93.1104 91.532C94.6935 91.5277 95.484 91.1427 95.4819 90.3771C95.4809 90.0267 95.2725 89.7353 94.8566 89.5029C94.4537 89.2574 93.96 89.0576 93.3757 88.9035C92.7913 88.7364 92.2068 88.5499 91.6223 88.3439C91.0378 88.1378 90.5373 87.8278 90.121 87.4137C89.7175 86.9995 89.515 86.481 89.5133 85.8581Z" fill="black"/>
<path d="M172.022 54.3395L173.657 54.335L173.69 66.4031L181.242 66.3823L181.246 67.9395L172.059 67.9647L172.022 54.3395Z" fill="black"/>
<path d="M184.577 67.9304L183.02 67.9347L182.994 58.5916L184.551 58.5874L184.577 67.9304ZM184.483 54.8892C184.678 55.0574 184.776 55.2972 184.777 55.6086C184.778 55.9201 184.681 56.1669 184.487 56.3491C184.293 56.5183 184.053 56.6033 183.767 56.6041C183.482 56.6049 183.241 56.5212 183.046 56.353C182.851 56.1719 182.753 55.9256 182.752 55.6142C182.751 55.3027 182.848 55.0624 183.042 54.8932C183.236 54.711 183.476 54.6195 183.762 54.6187C184.047 54.6179 184.288 54.7081 184.483 54.8892Z" fill="black"/>
<path d="M188.183 66.7526C187.298 65.8207 186.853 64.6541 186.85 63.2526C186.846 61.8511 187.284 60.6821 188.164 59.7453C189.056 58.8086 190.171 58.3384 191.508 58.3347C192.974 58.3307 194.234 58.9241 195.289 60.1151L195.284 58.5579L196.686 58.5541L196.723 72.1793L195.166 72.1836L195.151 66.4999C194.219 67.5925 193.014 68.1408 191.535 68.1449C190.198 68.1485 189.081 67.6845 188.183 66.7526ZM195.138 62.062C194.851 61.4139 194.402 60.8702 193.791 60.4306C193.18 59.9911 192.478 59.7724 191.687 59.7746C190.753 59.7772 189.968 60.0972 189.334 60.7348C188.713 61.3724 188.404 62.2102 188.407 63.2483C188.41 64.2864 188.723 65.1226 189.348 65.7567C189.986 66.3908 190.772 66.7066 191.706 66.704C192.497 66.7018 193.198 66.4793 193.806 66.0364C194.415 65.5936 194.861 65.0473 195.145 64.3977L195.138 62.062Z" fill="black"/>
<path d="M206.556 58.527L208.114 58.5227L208.139 67.8658L206.738 67.8696L206.734 66.4876C206.398 66.9427 205.925 67.3268 205.316 67.6399C204.72 67.953 204.072 68.1105 203.371 68.1124C202.164 68.1157 201.209 67.7745 200.507 67.0886C199.817 66.3898 199.471 65.4629 199.468 64.308L199.452 58.5465L201.009 58.5422L201.024 64.1091C201.029 65.822 201.868 66.6761 203.542 66.6715C204.736 66.6683 205.746 66.0426 206.574 64.7946L206.556 58.527Z" fill="black"/>
<path d="M212.614 67.8535L211.057 67.8578L211.032 58.5147L212.589 58.5105L212.614 67.8535ZM212.52 54.8123C212.715 54.9805 212.813 55.2203 212.814 55.5317C212.815 55.8432 212.718 56.09 212.524 56.2722C212.33 56.4414 212.09 56.5264 211.805 56.5272C211.519 56.528 211.279 56.4443 211.084 56.2761C210.889 56.095 210.791 55.8487 210.79 55.5373C210.789 55.2258 210.886 54.9855 211.08 54.8163C211.274 54.6341 211.514 54.5426 211.799 54.5418C212.085 54.541 212.325 54.6312 212.52 54.8123Z" fill="black"/>
<path d="M223.154 54.1992L224.712 54.1949L224.749 67.8202L223.348 67.824L223.343 66.2669C222.295 67.4636 221.038 68.064 219.572 68.068C218.235 68.0716 217.118 67.6075 216.22 66.6757C215.335 65.7438 214.891 64.5772 214.887 63.1757C214.883 61.7742 215.321 60.6052 216.201 59.6684C217.094 58.7317 218.209 58.2615 219.545 58.2578C221.024 58.2537 222.233 58.7954 223.17 59.8829L223.154 54.1992ZM223.176 61.9851C222.889 61.337 222.439 60.7933 221.828 60.3537C221.217 59.9142 220.516 59.6955 219.724 59.6977C218.79 59.7003 218.006 60.0203 217.372 60.6579C216.751 61.2955 216.441 62.1333 216.444 63.1714C216.447 64.2095 216.761 65.0457 217.385 65.6798C218.023 66.3139 218.809 66.6297 219.743 66.6271C220.535 66.6249 221.235 66.4024 221.844 65.9595C222.452 65.5167 222.899 64.9704 223.182 64.3208L223.176 61.9851Z" fill="black"/>
<path d="M229.228 67.8079L227.671 67.8122L227.645 58.4692L229.202 58.4649L229.228 67.8079ZM229.134 54.7668C229.329 54.9349 229.427 55.1747 229.427 55.4862C229.428 55.7976 229.332 56.0444 229.138 56.2266C228.943 56.3958 228.704 56.4808 228.418 56.4816C228.133 56.4824 227.892 56.3987 227.697 56.2306C227.502 56.0494 227.404 55.8031 227.403 55.4917C227.402 55.1803 227.499 54.9399 227.693 54.7707C227.887 54.5885 228.127 54.497 228.413 54.4962C228.698 54.4954 228.938 54.5856 229.134 54.7668Z" fill="black"/>
<path d="M232.745 55.5549L234.282 55.1614L234.291 58.4509L238.028 58.4407L238.032 59.8811L234.295 59.8913L234.308 64.7185C234.31 65.4063 234.467 65.886 234.779 66.1576C235.104 66.4293 235.617 66.5641 236.318 66.5622C236.992 66.5603 237.68 66.4157 238.38 66.1283L238.384 67.5687C237.593 67.8563 236.756 68.0014 235.874 68.0038C234.927 68.0064 234.173 67.7554 233.614 67.2509C233.055 66.7333 232.774 65.9815 232.771 64.9953L232.757 59.8955L231.005 59.9003L231.001 58.4599L232.753 58.4551L232.745 55.5549Z" fill="black"/>
<path d="M244.066 65.9959L247.199 58.4155L248.853 58.411L244.289 69.1681C243.399 71.2468 242.228 72.2881 240.774 72.2921C240.424 72.293 240.087 72.2485 239.762 72.1586L239.758 70.8155C240.031 70.8926 240.304 70.9308 240.576 70.9301C241.575 70.9273 242.378 70.166 242.983 68.6461L243.331 67.7887L238.868 58.4384L240.522 58.4338L244.066 65.9959Z" fill="black"/>
<path d="M170.344 85.1836C171.392 83.9869 172.649 83.3865 174.115 83.3825C175.452 83.3788 176.563 83.8429 177.448 84.7748C178.346 85.7067 178.797 86.8733 178.8 88.2748C178.804 89.6762 178.36 90.8453 177.467 91.7821C176.587 92.7188 175.479 93.189 174.142 93.1927C172.663 93.1967 171.455 92.655 170.517 91.5676L170.533 97.2513L168.976 97.2555L168.938 83.6303L170.34 83.6264L170.344 85.1836ZM176.296 90.7926C176.93 90.155 177.246 89.3172 177.243 88.279C177.24 87.2409 176.92 86.4048 176.283 85.7707C175.658 85.1366 174.879 84.8208 173.944 84.8234C173.153 84.8255 172.453 85.048 171.844 85.4909C171.235 85.9338 170.789 86.48 170.505 87.1296L170.512 89.4654C170.799 90.1134 171.248 90.6572 171.859 91.0967C172.47 91.5363 173.172 91.7549 173.963 91.7528C174.898 91.7502 175.675 91.4301 176.296 90.7926Z" fill="black"/>
<path d="M182.434 85.2478C182.796 84.6369 183.352 84.1617 184.104 83.8223C184.856 83.4698 185.64 83.3249 186.458 83.3876L186.462 84.9447C185.554 84.8434 184.749 84.9949 184.05 85.399C183.363 85.7902 182.878 86.3625 182.595 87.1159L182.611 92.9359L181.053 92.9401L181.028 83.5971L182.429 83.5933L182.434 85.2478Z" fill="black"/>
<path d="M188.674 91.8487C187.685 90.969 187.189 89.77 187.184 88.2518C187.18 86.7335 187.67 85.5383 188.654 84.6662C189.638 83.7811 190.804 83.3367 192.154 83.333C193.516 83.3293 194.685 83.7673 195.661 84.647C196.65 85.5137 197.146 86.7062 197.15 88.2244C197.154 89.7427 196.665 90.9444 195.681 91.8295C194.71 92.7015 193.543 93.1395 192.181 93.1432C190.831 93.1469 189.662 92.7154 188.674 91.8487ZM194.627 90.7423C195.274 90.1177 195.596 89.2798 195.593 88.2287C195.59 87.1776 195.263 86.348 194.613 85.7399C193.962 85.1188 193.144 84.8096 192.158 84.8123C191.172 84.815 190.355 85.1287 189.708 85.7534C189.061 86.365 188.739 87.1964 188.742 88.2475C188.744 89.2986 189.071 90.1347 189.722 90.7558C190.372 91.3639 191.19 91.6666 192.177 91.6639C193.163 91.6612 193.98 91.354 194.627 90.7423Z" fill="black"/>
<path d="M206.017 83.5286L207.749 83.5238L203.648 92.8782L202.013 92.8827L197.861 83.5509L199.593 83.5462L202.826 91.1286L206.017 83.5286Z" fill="black"/>
<path d="M211.086 92.8578L209.529 92.862L209.503 83.519L211.061 83.5147L211.086 92.8578ZM210.992 79.8166C211.187 79.9848 211.285 80.2246 211.286 80.536C211.287 80.8474 211.19 81.0943 210.996 81.2765C210.802 81.4457 210.562 81.5307 210.277 81.5315C209.991 81.5323 209.751 81.4486 209.556 81.2804C209.361 81.0993 209.263 80.853 209.262 80.5416C209.261 80.2301 209.357 79.9898 209.552 79.8206C209.746 79.6384 209.986 79.5469 210.271 79.5461C210.557 79.5453 210.797 79.6355 210.992 79.8166Z" fill="black"/>
<path d="M221.626 79.2035L223.184 79.1992L223.221 92.8245L221.819 92.8283L221.815 91.2712C220.767 92.4679 219.51 93.0682 218.044 93.0723C216.707 93.0759 215.59 92.6118 214.692 91.68C213.807 90.7481 213.363 89.5814 213.359 88.18C213.355 86.7785 213.793 85.6094 214.673 84.6727C215.566 83.736 216.68 83.2657 218.017 83.2621C219.496 83.258 220.705 83.7997 221.642 84.8872L221.626 79.2035ZM221.648 86.9894C221.36 86.3413 220.911 85.7975 220.3 85.358C219.689 84.9185 218.988 84.6998 218.196 84.702C217.262 84.7045 216.478 85.0246 215.844 85.6622C215.222 86.2998 214.913 87.1376 214.916 88.1757C214.919 89.2138 215.233 90.05 215.857 90.6841C216.495 91.3182 217.281 91.634 218.215 91.6314C219.007 91.6292 219.707 91.4067 220.316 90.9638C220.924 90.521 221.37 89.9747 221.654 89.3251L221.648 86.9894Z" fill="black"/>
<path d="M225.448 88.1468C225.444 86.6156 225.908 85.414 226.84 84.542C227.785 83.67 228.867 83.2323 230.087 83.229C231.229 83.2258 232.17 83.5087 232.912 84.0777C233.666 84.6466 234.161 85.3524 234.397 86.1953C234.633 87.0251 234.648 87.8945 234.443 88.8034L227.007 88.8238C227.101 89.7449 227.511 90.438 228.239 90.9032C228.967 91.3683 229.844 91.5995 230.869 91.5967C232.011 91.5936 233.035 91.3377 233.942 90.8291L233.946 92.3474C233.078 92.8039 231.976 93.034 230.639 93.0377C229.16 93.0418 227.926 92.6234 226.938 91.7827C225.949 90.9419 225.453 89.7299 225.448 88.1468ZM233.057 87.4447C233.095 87.1721 233.075 86.8866 232.996 86.5884C232.918 86.2902 232.774 85.9921 232.566 85.6942C232.37 85.3963 232.065 85.1506 231.649 84.9571C231.233 84.7635 230.746 84.6676 230.188 84.6691C229.345 84.6714 228.612 84.92 227.991 85.4148C227.382 85.9096 227.053 86.5917 227.004 87.4613L233.057 87.4447Z" fill="black"/>
<path d="M238.148 85.0949C238.509 84.4841 239.066 84.0089 239.818 83.6694C240.569 83.317 241.354 83.1721 242.172 83.2348L242.176 84.7919C241.267 84.6906 240.463 84.842 239.764 85.2462C239.077 85.6374 238.592 86.2097 238.308 86.9631L238.324 92.7831L236.767 92.7873L236.742 83.4443L238.143 83.4405L238.148 85.0949Z" fill="black"/>
<path d="M243.331 85.8788C243.329 84.9834 243.671 84.3142 244.358 83.8711C245.057 83.415 245.9 83.1856 246.886 83.1829C248.093 83.1796 249.197 83.4426 250.197 83.9719L250.201 85.4512C249.811 85.1927 249.318 84.9865 248.72 84.8324C248.123 84.6653 247.545 84.5826 246.987 84.5841C246.416 84.5856 245.924 84.6908 245.509 84.8996C245.107 85.0953 244.907 85.4073 244.908 85.8355C244.909 86.147 245.052 86.4191 245.338 86.6519C245.638 86.8717 246.008 87.0393 246.449 87.1549C246.891 87.2705 247.365 87.4184 247.871 87.5987C248.391 87.766 248.872 87.9463 249.313 88.1398C249.755 88.3202 250.119 88.6047 250.406 88.9932C250.705 89.3687 250.856 89.8225 250.857 90.3545C250.86 91.2629 250.498 91.9321 249.773 92.3624C249.047 92.7796 248.126 92.9897 247.01 92.9928C245.544 92.9968 244.336 92.6952 243.387 92.0879L243.383 90.5697C244.371 91.2288 245.553 91.5564 246.929 91.5526C248.512 91.5483 249.302 91.1633 249.3 90.3977C249.299 90.0473 249.091 89.756 248.675 89.5235C248.272 89.2781 247.778 89.0783 247.194 88.9242C246.609 88.7571 246.025 88.5705 245.44 88.3645C244.856 88.1585 244.356 87.8484 243.939 87.4343C243.536 87.0202 243.333 86.5017 243.331 85.8788Z" fill="black"/>
<path d="M341.875 63.6936C341.574 62.864 341.423 62.0014 341.42 61.1061C341.418 60.2107 341.565 59.3473 341.861 58.516C342.17 57.6847 342.609 56.9373 343.178 56.274C343.748 55.5976 344.492 55.0571 345.412 54.6523C346.333 54.2475 347.37 54.0435 348.525 54.0403C349.68 54.0372 350.719 54.2354 351.641 54.6352C352.564 55.0349 353.311 55.5714 353.884 56.2446C354.457 56.9048 354.894 57.6498 355.194 58.4795C355.508 59.3091 355.666 60.1716 355.669 61.067C355.671 61.9624 355.518 62.8257 355.208 63.6571C354.912 64.4884 354.48 65.2422 353.911 65.9185C353.341 66.5819 352.597 67.116 351.677 67.5208C350.756 67.9256 349.719 68.1296 348.564 68.1327C347.409 68.1359 346.37 67.9376 345.448 67.5379C344.525 67.1381 343.778 66.6081 343.205 65.9479C342.632 65.2747 342.189 64.5233 341.875 63.6936ZM353.669 63.1163C353.901 62.4668 354.016 61.7852 354.014 61.0715C354.012 60.3578 353.893 59.6769 353.658 59.0287C353.436 58.3805 353.103 57.7974 352.661 57.2796C352.231 56.7617 351.659 56.3545 350.944 56.058C350.23 55.7485 349.425 55.595 348.529 55.5975C347.634 55.5999 346.83 55.7579 346.117 56.0713C345.404 56.3717 344.828 56.782 344.388 57.3023C343.961 57.8225 343.632 58.4074 343.4 59.0568C343.181 59.7063 343.073 60.3878 343.075 61.1015C343.077 61.8152 343.189 62.4962 343.411 63.1444C343.647 63.7926 343.979 64.3756 344.409 64.8935C344.852 65.4113 345.43 65.825 346.145 66.1345C346.859 66.431 347.664 66.578 348.56 66.5756C349.455 66.5731 350.259 66.4217 350.972 66.1212C351.685 65.8079 352.255 65.391 352.681 64.8708C353.121 64.3505 353.45 63.7657 353.669 63.1163Z" fill="black"/>
<path d="M370.09 58.497L371.725 58.4925L368.559 67.8443L366.865 67.8489L364.315 60.6345L361.804 67.8628L360.111 67.8675L356.893 58.5332L358.528 58.5287L360.963 66.1522L363.608 58.5148L365.01 58.5109L367.697 66.1338L370.09 58.497Z" fill="black"/>
<path d="M374.918 59.8658C375.254 59.4107 375.72 59.0266 376.317 58.7135C376.926 58.4004 377.58 58.2429 378.281 58.241C379.41 58.2379 380.339 58.5922 381.068 59.3039C381.809 60.0026 382.181 60.9164 382.185 62.0454L382.2 67.8069L380.643 67.8112L380.628 62.2443C380.626 61.4008 380.39 60.7656 379.922 60.3387C379.467 59.8987 378.863 59.6798 378.11 59.6818C376.916 59.6851 375.906 60.3107 375.079 61.5588L375.096 67.8264L373.539 67.8306L373.513 58.4876L374.914 58.4838L374.918 59.8658Z" fill="black"/>
<path d="M327.474 78.7478L329.031 78.7435L329.07 92.9527L327.513 92.957L327.474 78.7478Z" fill="black"/>
<path d="M333.594 92.9403L332.037 92.9446L332.011 83.6015L333.568 83.5973L333.594 92.9403ZM333.5 79.8991C333.695 80.0673 333.793 80.3071 333.794 80.6185C333.794 80.93 333.698 81.1768 333.504 81.359C333.309 81.5282 333.07 81.6132 332.784 81.614C332.499 81.6148 332.258 81.5311 332.063 81.3629C331.868 81.1818 331.77 80.9355 331.769 80.6241C331.768 80.3127 331.865 80.0723 332.059 79.9031C332.253 79.7209 332.493 79.6294 332.779 79.6286C333.064 79.6278 333.304 79.718 333.5 79.8991Z" fill="black"/>
<path d="M337.2 91.7625C336.315 90.8306 335.87 89.664 335.867 88.2625C335.863 86.8611 336.301 85.692 337.181 84.7552C338.073 83.8185 339.188 83.3483 340.525 83.3446C341.991 83.3406 343.251 83.9341 344.306 85.125L344.301 83.5678L345.703 83.564L345.74 97.1892L344.183 97.1935L344.167 91.5098C343.236 92.6024 342.031 93.1507 340.552 93.1548C339.215 93.1585 338.098 92.6944 337.2 91.7625ZM344.155 87.0719C343.868 86.4239 343.419 85.8801 342.808 85.4405C342.197 85.001 341.495 84.7823 340.704 84.7845C339.769 84.7871 338.985 85.1072 338.351 85.7447C337.73 86.3823 337.421 87.2201 337.424 88.2582C337.427 89.2964 337.74 90.1325 338.365 90.7666C339.002 91.4007 339.788 91.7165 340.723 91.7139C341.514 91.7118 342.214 91.4892 342.823 91.0464C343.432 90.6035 343.878 90.0573 344.162 89.4076L344.155 87.0719Z" fill="black"/>
<path d="M355.573 83.5369L357.13 83.5326L357.156 92.8757L355.755 92.8795L355.751 91.4975C355.415 91.9526 354.942 92.3367 354.333 92.6498C353.737 92.9629 353.089 93.1204 352.388 93.1223C351.181 93.1256 350.226 92.7844 349.524 92.0985C348.834 91.3997 348.488 90.4728 348.484 89.3179L348.469 83.5564L350.026 83.5521L350.041 89.119C350.046 90.8319 350.885 91.6861 352.559 91.6815C353.753 91.6782 354.763 91.0525 355.59 89.8045L355.573 83.5369Z" fill="black"/>
<path d="M361.631 92.8634L360.074 92.8677L360.048 83.5246L361.606 83.5204L361.631 92.8634ZM361.537 79.8222C361.732 79.9904 361.83 80.2302 361.831 80.5416C361.832 80.8531 361.735 81.0999 361.541 81.2821C361.347 81.4513 361.107 81.5363 360.822 81.5371C360.536 81.5379 360.296 81.4542 360.101 81.286C359.906 81.1049 359.808 80.8586 359.807 80.5472C359.806 80.2358 359.903 79.9954 360.097 79.8262C360.291 79.644 360.531 79.5525 360.816 79.5517C361.102 79.5509 361.342 79.6411 361.537 79.8222Z" fill="black"/>
<path d="M372.171 79.2091L373.729 79.2049L373.766 92.8301L372.364 92.834L372.36 91.2768C371.312 92.4735 370.055 93.0739 368.589 93.0779C367.252 93.0816 366.135 92.6175 365.237 91.6856C364.352 90.7537 363.908 89.5871 363.904 88.1856C363.9 86.7842 364.338 85.6151 365.218 84.6783C366.111 83.7416 367.225 83.2714 368.562 83.2677C370.041 83.2637 371.25 83.8054 372.187 84.8928L372.171 79.2091ZM372.193 86.995C371.905 86.347 371.456 85.8032 370.845 85.3636C370.234 84.9241 369.533 84.7054 368.741 84.7076C367.807 84.7102 367.023 85.0303 366.389 85.6678C365.767 86.3054 365.458 87.1432 365.461 88.1813C365.464 89.2195 365.778 90.0556 366.402 90.6897C367.04 91.3238 367.826 91.6396 368.76 91.637C369.552 91.6349 370.252 91.4123 370.861 90.9695C371.469 90.5266 371.915 89.9804 372.199 89.3307L372.193 86.995Z" fill="black"/>
<path d="M378.245 92.8178L376.687 92.8221L376.662 83.4791L378.219 83.4748L378.245 92.8178ZM378.15 79.7767C378.346 79.9448 378.444 80.1846 378.444 80.4961C378.445 80.8075 378.349 81.0543 378.154 81.2365C377.96 81.4058 377.72 81.4908 377.435 81.4915C377.149 81.4923 376.909 81.4086 376.714 81.2405C376.519 81.0593 376.421 80.8131 376.42 80.5016C376.419 80.1902 376.516 79.9499 376.71 79.7806C376.904 79.5984 377.144 79.5069 377.43 79.5061C377.715 79.5054 377.955 79.5955 378.15 79.7767Z" fill="black"/>
<path d="M381.762 80.5648L383.298 80.1713L383.307 83.4608L387.045 83.4506L387.049 84.891L383.311 84.9012L383.325 89.7285C383.327 90.4162 383.484 90.8959 383.796 91.1676C384.121 91.4392 384.634 91.574 385.335 91.5721C386.009 91.5703 386.697 91.4256 387.397 91.1382L387.401 92.5786C386.61 92.8663 385.773 93.0113 384.891 93.0137C383.944 93.0163 383.19 92.7653 382.631 92.2608C382.071 91.7433 381.79 90.9914 381.788 90.0052L381.774 84.9054L380.022 84.9102L380.018 83.4699L381.77 83.4651L381.762 80.5648Z" fill="black"/>
<path d="M393.083 91.0058L396.216 83.4254L397.87 83.4209L393.306 94.178C392.416 96.2567 391.245 97.298 389.791 97.302C389.441 97.303 389.103 97.2585 388.779 97.1685L388.775 95.8255C389.048 95.9026 389.32 95.9407 389.593 95.94C390.592 95.9373 391.395 95.1759 392 93.656L392.348 92.7986L387.885 83.4483L389.539 83.4438L393.083 91.0058Z" fill="black"/>
<path d="M181.5 262.601C181.495 261.096 181.848 259.791 182.558 258.686C183.268 257.568 184.154 256.749 185.217 256.227C186.279 255.706 187.42 255.443 188.64 255.441C190.041 255.437 191.321 255.739 192.478 256.347L192.483 257.982C191.494 257.322 190.306 256.994 188.918 256.997C187.36 257.001 186.012 257.484 184.874 258.447C183.735 259.397 183.162 260.78 183.155 262.597C183.158 263.752 183.453 264.75 184.04 265.593C184.64 266.435 185.368 267.043 186.226 267.417C187.097 267.791 188.025 267.977 189.011 267.975C190.478 267.972 191.677 267.638 192.609 266.974L192.614 268.609C191.435 269.222 190.119 269.53 188.666 269.533C187.797 269.535 186.94 269.388 186.095 269.091C185.251 268.782 184.484 268.349 183.794 267.793C183.105 267.223 182.551 266.491 182.133 265.597C181.714 264.69 181.504 263.691 181.5 262.601Z" fill="black"/>
<path d="M194.796 255.076L196.353 255.072L196.399 269.281L194.842 269.285L194.796 255.076Z" fill="black"/>
<path d="M200.923 269.271L199.366 269.275L199.336 259.931L200.893 259.928L200.923 269.271ZM200.823 256.23C201.018 256.398 201.116 256.638 201.117 256.949C201.118 257.261 201.021 257.507 200.827 257.69C200.633 257.859 200.393 257.944 200.108 257.944C199.822 257.945 199.582 257.861 199.387 257.693C199.192 257.512 199.093 257.265 199.092 256.954C199.091 256.643 199.188 256.402 199.382 256.233C199.576 256.051 199.816 255.96 200.101 255.959C200.387 255.958 200.627 256.048 200.823 256.23Z" fill="black"/>
<path d="M203.193 264.594C203.189 263.063 203.652 261.861 204.583 260.99C205.528 260.118 206.61 259.681 207.83 259.678C208.972 259.675 209.913 259.959 210.655 260.528C211.409 261.097 211.905 261.803 212.141 262.646C212.377 263.476 212.393 264.345 212.188 265.254L204.753 265.272C204.847 266.193 205.258 266.886 205.986 267.351C206.714 267.817 207.591 268.048 208.616 268.046C209.758 268.043 210.782 267.788 211.689 267.28L211.694 268.798C210.826 269.254 209.723 269.484 208.387 269.487C206.908 269.49 205.673 269.072 204.684 268.23C203.696 267.389 203.199 266.177 203.193 264.594ZM210.802 263.895C210.84 263.622 210.82 263.337 210.741 263.039C210.662 262.74 210.518 262.442 210.31 262.144C210.114 261.846 209.808 261.6 209.392 261.407C208.977 261.213 208.49 261.117 207.932 261.118C207.088 261.12 206.356 261.368 205.735 261.863C205.126 262.358 204.798 263.04 204.748 263.909L210.802 263.895Z" fill="black"/>
<path d="M215.89 261.275C216.226 260.82 216.692 260.436 217.288 260.123C217.897 259.81 218.552 259.653 219.253 259.651C220.382 259.649 221.31 260.003 222.039 260.715C222.781 261.414 223.154 262.328 223.158 263.457L223.176 269.219L221.619 269.223L221.601 263.656C221.599 262.812 221.363 262.177 220.894 261.75C220.439 261.31 219.835 261.09 219.082 261.092C217.888 261.095 216.878 261.72 216.052 262.968L216.072 269.235L214.515 269.239L214.484 259.896L215.886 259.893L215.89 261.275Z" fill="black"/>
<path d="M226.408 256.968L227.945 256.575L227.955 259.865L231.692 259.856L231.697 261.296L227.96 261.305L227.975 266.132C227.978 266.82 228.135 267.3 228.447 267.572C228.772 267.843 229.285 267.978 229.986 267.977C230.661 267.975 231.348 267.831 232.048 267.544L232.053 268.984C231.262 269.271 230.425 269.416 229.543 269.418C228.596 269.42 227.842 269.169 227.283 268.664C226.723 268.147 226.442 267.395 226.438 266.408L226.422 261.309L224.67 261.313L224.666 259.872L226.417 259.868L226.408 256.968Z" fill="black"/>
<path d="M206.248 138.686V104.669H207.133V138.686H362.066V104.67L362.951 104.67V139.57L207.133 139.57V162.376H206.248V139.57L50.4258 139.57V104.67L51.3105 104.67L51.3105 138.686H206.248Z" fill="black"/>
<path fill-rule="evenodd" clip-rule="evenodd" d="M206.248 215.376V237.429H137.94V290.512H275.196V237.429H207.133V215.376H275.196V162.376H137.94V215.376H206.248ZM274.311 238.314H138.825V289.627H274.311V238.314ZM138.825 163.261H274.311V214.491H138.825V163.261Z" fill="black"/>
<g clip-path="url(#clip0)">
<path d="M164.199 175.337L160.878 177.176L164.454 177.687L164.403 181.621L167.724 179.833L167.775 175.848L164.199 175.337Z" fill="#500B06"/>
<path d="M160.571 178.76L157.25 180.599L160.826 181.11L164.147 179.322L160.571 178.76Z" fill="#500B06"/>
<path d="M167.724 179.833L164.403 181.621L164.352 185.606L167.673 183.767L167.724 179.833Z" fill="#500B06"/>
<path d="M164.453 177.687L164.402 181.621L164.351 185.607L160.774 185.096L157.249 184.585V180.599L160.826 181.11L160.877 177.176L164.453 177.687Z" fill="#C22A1D"/>
<path d="M174.416 176.87L171.044 178.709L174.62 179.22L177.941 177.432L174.416 176.87Z" fill="#500B06"/>
<path d="M177.941 177.432L174.62 179.22L174.57 183.205L178.146 183.716L178.095 187.701L181.467 185.862V181.877L177.942 181.366L177.941 177.432Z" fill="#500B06"/>
<path d="M174.621 179.22L174.57 183.205L178.146 183.716L178.095 187.701L174.57 187.139L170.993 186.628L171.044 182.694V178.709L174.621 179.22Z" fill="#C22A1D"/>
<path d="M174.212 190.716L170.891 192.504L174.467 193.015L178.044 193.577L177.992 197.511L181.313 195.723L181.365 191.738L174.212 190.716Z" fill="#500B06"/>
<path d="M177.737 195.212L174.416 197L174.365 200.985L177.686 199.146L177.737 195.212Z" fill="#500B06"/>
<path d="M178.043 193.577L177.992 197.511L174.416 197L174.365 200.985L170.788 200.474L170.839 196.489L170.89 192.504L174.467 193.015L178.043 193.577Z" fill="#C22A1D"/>
<path d="M160.468 188.621L157.146 190.46L164.299 191.482L164.197 199.401L167.518 197.613L167.62 189.643L160.468 188.621Z" fill="#500B06"/>
<path d="M164.3 191.482L164.249 195.467L164.198 199.401L160.621 198.89L160.672 194.956L157.096 194.394L157.147 190.46L160.723 190.971L164.3 191.482Z" fill="#C22A1D"/>
</g>
<path d="M190.579 183.636H191.524V192.577H190.579V183.636Z" fill="#181818"/>
<path d="M205.355 183.636V192.577H204.575L198.827 185.322V192.577H197.882V183.636H198.661L204.422 190.891V183.636H205.355Z" fill="#181818"/>
<path d="M219.056 183.636L215.096 192.577H214.164L210.204 183.636H211.226L214.649 191.402L218.098 183.636H219.056Z" fill="#181818"/>
<path d="M230.125 191.759V192.577H223.802V183.636H229.933V184.453H224.747V187.634H229.371V188.438H224.747V191.759H230.125Z" fill="#181818"/>
<path d="M245.082 183.636V192.577H244.175V185.424L240.662 191.44H240.215L236.702 185.462V192.577H235.796V183.636H236.575L240.458 190.265L244.302 183.636H245.082Z" fill="#181818"/>
<path d="M255.352 192.654C254.467 192.654 253.662 192.458 252.938 192.066C252.223 191.666 251.661 191.121 251.252 190.431C250.852 189.741 250.652 188.966 250.652 188.106C250.652 187.246 250.852 186.471 251.252 185.782C251.661 185.092 252.223 184.551 252.938 184.159C253.662 183.759 254.467 183.559 255.352 183.559C256.238 183.559 257.034 183.755 257.741 184.147C258.456 184.538 259.018 185.083 259.427 185.782C259.836 186.471 260.04 187.246 260.04 188.106C260.04 188.966 259.836 189.746 259.427 190.444C259.018 191.134 258.456 191.674 257.741 192.066C257.034 192.458 256.238 192.654 255.352 192.654ZM255.352 191.811C256.059 191.811 256.698 191.653 257.268 191.338C257.839 191.014 258.286 190.572 258.609 190.01C258.933 189.439 259.095 188.805 259.095 188.106C259.095 187.408 258.933 186.778 258.609 186.216C258.286 185.645 257.839 185.203 257.268 184.887C256.698 184.564 256.059 184.402 255.352 184.402C254.645 184.402 254.003 184.564 253.423 184.887C252.853 185.203 252.402 185.645 252.07 186.216C251.746 186.778 251.584 187.408 251.584 188.106C251.584 188.805 251.746 189.439 252.07 190.01C252.402 190.572 252.853 191.014 253.423 191.338C254.003 191.653 254.645 191.811 255.352 191.811Z" fill="#181818"/>
<defs>
<clipPath id="clip0">
<rect width="25.0354" height="27.0791" fill="white" transform="translate(157.096 175.337)"/>
</clipPath>
</defs>
</svg>
