<svg width="47" height="51" viewBox="0 0 47 51" fill="none" xmlns="http://www.w3.org/2000/svg">
<g clip-path="url(#clip0)">
<path d="M13.7517 0.191406L7.64037 3.57613L14.2217 4.51634L14.1277 11.7559L20.239 8.46519L20.333 1.13166L13.7517 0.191406Z" fill="#500B06"/>
<path d="M7.07616 6.49072L0.964844 9.87544L7.54626 10.8156L13.6576 7.52494L7.07616 6.49072Z" fill="#500B06"/>
<path d="M20.239 8.46519L14.1277 11.7559L14.034 19.0895L20.1453 15.7048L20.239 8.46519Z" fill="#500B06"/>
<path d="M14.2217 4.51637L14.1277 11.7559L14.0337 19.0895L7.45224 18.1493L0.964844 17.2091V9.87553L7.54626 10.8157L7.64028 3.57617L14.2217 4.51637Z" fill="#C22A1D"/>
<path d="M32.5569 3.01172L26.3516 6.39645L32.933 7.33665L39.0443 4.04594L32.5569 3.01172Z" fill="#500B06"/>
<path d="M39.0443 4.04594L32.933 7.33665L32.8393 14.6703L39.4207 15.6105L39.3266 22.9441L45.532 19.5593V12.2257L39.0447 11.2856L39.0443 4.04594Z" fill="#500B06"/>
<path d="M32.9332 7.33669L32.8392 14.6703L39.4206 15.6105L39.3266 22.944L32.8392 21.9098L26.2578 20.9696L26.3518 13.7301V6.39648L32.9332 7.33669Z" fill="#C22A1D"/>
<path d="M32.1797 28.4922L26.0684 31.7829L32.6498 32.7231L39.2311 33.7573L39.1371 40.9969L45.2484 37.7062L45.3424 30.3726L32.1797 28.4922Z" fill="#500B06"/>
<path d="M38.6669 36.7658L32.5556 40.0565L32.4615 47.3901L38.5729 44.0053L38.6669 36.7658Z" fill="#500B06"/>
<path d="M39.2317 33.7576L39.1377 40.9972L32.5563 40.057L32.4623 47.3906L25.8809 46.4504L25.9749 39.1168L26.0689 31.7832L32.6503 32.7234L39.2317 33.7576Z" fill="#C22A1D"/>
<path d="M6.88866 24.6367L0.777344 28.0214L13.9401 29.9018L13.752 44.475L19.8633 41.1843L20.0514 26.5171L6.88866 24.6367Z" fill="#500B06"/>
<path d="M13.9404 29.9019L13.8464 37.2355L13.7524 44.475L7.17099 43.5348L7.26501 36.2953L0.683594 35.261L0.777614 28.0215L7.35903 28.9617L13.9404 29.9019Z" fill="#C22A1D"/>
</g>
<defs>
<clipPath id="clip0">
<rect width="46.0699" height="49.8307" fill="white" transform="translate(0.683594 0.191406)"/>
</clipPath>
</defs>
</svg>
