<svg width="63" height="63" viewBox="0 0 63 63" fill="none" xmlns="http://www.w3.org/2000/svg">
<path d="M53.4267 23.6943L46.1094 23.0937L46.2192 21.8085L51.9735 22.2799L51.3148 16.2026L52.6 16.0605L53.4267 23.6943Z" fill="#3B3C3D"/>
<path d="M22.1823 20.666H7.32812V21.9577H22.1823V20.666Z" fill="#3B3C3D"/>
<path d="M22.1816 26.9043H14.4316V28.196H22.1816V26.9043Z" fill="#3B3C3D"/>
<path d="M22.1823 33.1484H7.32812V34.4401H22.1823V33.1484Z" fill="#3B3C3D"/>
<path d="M22.1816 39.3945H14.4316V40.6862H22.1816V39.3945Z" fill="#3B3C3D"/>
<path fill-rule="evenodd" clip-rule="evenodd" d="M32.256 17.7866C34.8046 16.0843 37.8005 15.1758 40.8652 15.1758C45.4183 15.1758 49.5707 17.3009 52.9556 22.0398L51.379 23.1659C48.3056 18.8632 44.708 17.1133 40.8652 17.1133C38.1836 17.1133 35.5621 17.9083 33.3322 19.3977C31.1022 20.8872 29.3639 23.0043 28.3369 25.4815C27.3098 27.9586 27.0402 30.6847 27.562 33.315C28.0839 35.9454 29.3738 38.3621 31.2687 40.2595C33.1637 42.157 35.5786 43.4501 38.2083 43.9755C40.8379 44.5008 43.5643 44.2348 46.0429 43.2111C48.5214 42.1873 50.6408 40.4518 52.1333 38.2238C53.6257 35.9959 54.4242 33.3755 54.4277 30.6939L56.3652 30.6964C56.3611 33.7612 55.4486 36.7559 53.743 39.3021C52.0373 41.8484 49.6151 43.8318 46.7825 45.0018C43.9499 46.1718 40.834 46.4758 37.8287 45.8754C34.8233 45.275 32.0634 43.7972 29.8978 41.6286C27.7321 39.4601 26.258 36.6982 25.6616 33.6921C25.0652 30.6859 25.3733 27.5705 26.5471 24.7394C27.7208 21.9084 29.7075 19.4888 32.256 17.7866Z" fill="#3B3C3D"/>
<path fill-rule="evenodd" clip-rule="evenodd" d="M53.1331 15.418L53.8823 24.4087L44.9043 22.9123L45.2228 21.0012L51.7448 22.0882L51.2023 15.5789L53.1331 15.418Z" fill="#3B3C3D"/>
<path fill-rule="evenodd" clip-rule="evenodd" d="M22.459 22.2793H6.95898V20.3418H22.459V22.2793Z" fill="#3B3C3D"/>
<path fill-rule="evenodd" clip-rule="evenodd" d="M22.459 34.7637H6.95898V32.8262H22.459V34.7637Z" fill="#3B3C3D"/>
<path fill-rule="evenodd" clip-rule="evenodd" d="M22.4583 28.5195H14.0625V26.582H22.4583V28.5195Z" fill="#3B3C3D"/>
<path fill-rule="evenodd" clip-rule="evenodd" d="M22.4583 41.0098H14.0625V39.0723H22.4583V41.0098Z" fill="#3B3C3D"/>
</svg>
