<svg width="63" height="63" viewBox="0 0 63 63" fill="none" xmlns="http://www.w3.org/2000/svg">
<path d="M12.6042 54.8958C11.5823 54.8958 10.5834 54.5928 9.73372 54.0251C8.88407 53.4574 8.22184 52.6505 7.83079 51.7064C7.43974 50.7623 7.33742 49.7234 7.53678 48.7212C7.73614 47.719 8.22821 46.7984 8.95078 46.0758C9.67336 45.3532 10.594 44.8611 11.5962 44.6618C12.5984 44.4624 13.6373 44.5647 14.5814 44.9558C15.5255 45.3468 16.3324 46.0091 16.9001 46.8587C17.4678 47.7084 17.7708 48.7073 17.7708 49.7292C17.7708 51.0995 17.2265 52.4136 16.2576 53.3826C15.2886 54.3515 13.9745 54.8958 12.6042 54.8958ZM12.6042 45.8542C11.8378 45.8542 11.0886 46.0814 10.4513 46.5072C9.81409 46.933 9.31743 47.5382 9.02414 48.2463C8.73085 48.9543 8.65411 49.7335 8.80363 50.4851C8.95314 51.2368 9.3222 51.9273 9.86413 52.4692C10.4061 53.0111 11.0965 53.3802 11.8482 53.5297C12.5999 53.6792 13.379 53.6025 14.0871 53.3092C14.7951 53.0159 15.4003 52.5192 15.8261 51.882C16.2519 51.2448 16.4792 50.4956 16.4792 49.7292C16.4792 48.7015 16.0709 47.7158 15.3442 46.9891C14.6175 46.2624 13.6319 45.8542 12.6042 45.8542Z" fill="#3B3C3D"/>
<path d="M31.1979 54.8958C30.1761 54.8958 29.1771 54.5928 28.3275 54.0251C27.4778 53.4574 26.8156 52.6505 26.4245 51.7064C26.0335 50.7623 25.9312 49.7234 26.1305 48.7212C26.3299 47.719 26.822 46.7984 27.5445 46.0758C28.2671 45.3532 29.1877 44.8611 30.19 44.6618C31.1922 44.4624 32.231 44.5647 33.1751 44.9558C34.1192 45.3468 34.9261 46.0091 35.4938 46.8587C36.0616 47.7084 36.3646 48.7073 36.3646 49.7292C36.3646 51.0995 35.8202 52.4136 34.8513 53.3826C33.8824 54.3515 32.5682 54.8958 31.1979 54.8958ZM31.1979 45.8542C30.4315 45.8542 29.6823 46.0814 29.0451 46.5072C28.4078 46.933 27.9112 47.5382 27.6179 48.2463C27.3246 48.9543 27.2479 49.7335 27.3974 50.4851C27.5469 51.2368 27.916 51.9273 28.4579 52.4692C28.9998 53.0111 29.6903 53.3802 30.4419 53.5297C31.1936 53.6792 31.9728 53.6025 32.6808 53.3092C33.3889 53.0159 33.9941 52.5192 34.4199 51.882C34.8457 51.2448 35.0729 50.4956 35.0729 49.7292C35.0729 48.7015 34.6647 47.7158 33.938 46.9891C33.2113 46.2624 32.2256 45.8542 31.1979 45.8542Z" fill="#3B3C3D"/>
<path d="M50.0612 54.8958C49.0393 54.8958 48.0404 54.5928 47.1908 54.0251C46.3411 53.4574 45.6789 52.6505 45.2878 51.7064C44.8968 50.7623 44.7945 49.7234 44.9938 48.7212C45.1932 47.719 45.6852 46.7984 46.4078 46.0758C47.1304 45.3532 48.051 44.8611 49.0532 44.6618C50.0555 44.4624 51.0943 44.5647 52.0384 44.9558C52.9825 45.3468 53.7894 46.0091 54.3571 46.8587C54.9248 47.7084 55.2279 48.7073 55.2279 49.7292C55.2279 51.0995 54.6835 52.4136 53.7146 53.3826C52.7456 54.3515 51.4315 54.8958 50.0612 54.8958ZM50.0612 45.8542C49.2948 45.8542 48.5456 46.0814 47.9084 46.5072C47.2711 46.933 46.7745 47.5382 46.4812 48.2463C46.1879 48.9543 46.1111 49.7335 46.2607 50.4851C46.4102 51.2368 46.7792 51.9273 47.3212 52.4692C47.8631 53.0111 48.5536 53.3802 49.3052 53.5297C50.0569 53.6792 50.836 53.6025 51.5441 53.3092C52.2522 53.0159 52.8574 52.5192 53.2831 51.882C53.7089 51.2448 53.9362 50.4956 53.9362 49.7292C53.9362 48.7015 53.5279 47.7158 52.8012 46.9891C52.0745 46.2624 51.0889 45.8542 50.0612 45.8542Z" fill="#3B3C3D"/>
<path d="M31.332 33.582C28.6496 33.582 26.0275 32.7866 23.7971 31.2963C21.5668 29.8061 19.8284 27.6879 18.8019 25.2097C17.7754 22.7315 17.5068 20.0045 18.0301 17.3736C18.5534 14.7428 19.8452 12.3261 21.7419 10.4294C23.6386 8.53265 26.0553 7.24095 28.6861 6.71764C31.317 6.19433 34.044 6.46291 36.5222 7.48942C39.0004 8.51593 41.1186 10.2543 42.6088 12.4846C44.0991 14.715 44.8945 17.3371 44.8945 20.0195C44.8945 23.6165 43.4656 27.0662 40.9222 29.6097C38.3787 32.1531 34.929 33.582 31.332 33.582ZM31.332 7.7487C28.9051 7.7487 26.5327 8.46837 24.5147 9.81671C22.4968 11.165 20.924 13.0815 19.9953 15.3237C19.0665 17.5659 18.8235 20.0331 19.297 22.4135C19.7705 24.7938 20.9391 26.9802 22.6552 28.6963C24.3714 30.4124 26.5578 31.5811 28.9381 32.0546C31.3184 32.5281 33.7857 32.285 36.0279 31.3563C38.2701 30.4275 40.1865 28.8548 41.5349 26.8368C42.8832 24.8189 43.6029 22.4465 43.6029 20.0195C43.6029 18.4081 43.2855 16.8125 42.6688 15.3237C42.0521 13.8349 41.1483 12.4822 40.0088 11.3427C38.8694 10.2033 37.5166 9.29943 36.0279 8.68276C34.5391 8.0661 32.9435 7.7487 31.332 7.7487Z" fill="#3B3C3D"/>
<path d="M44.0499 19.7227H18.9141V21.0143H44.0499V19.7227Z" fill="#3B3C3D"/>
<path d="M31.3327 33.582C27.9679 33.582 26.166 26.5941 26.166 20.0195C26.166 13.4449 27.9808 6.45703 31.3327 6.45703C34.6846 6.45703 36.4994 13.4449 36.4994 20.0195C36.4994 26.5941 34.7039 33.582 31.3327 33.582ZM31.3327 7.7487C29.4921 7.7487 27.4577 12.7862 27.4577 20.0195C27.4577 27.2529 29.505 32.2904 31.3327 32.2904C33.1604 32.2904 35.2077 27.2464 35.2077 20.0195C35.2077 12.7927 33.1733 7.7487 31.3327 7.7487Z" fill="#3B3C3D"/>
<path fill-rule="evenodd" clip-rule="evenodd" d="M31.3659 8.07227C24.7672 8.07227 19.418 13.4215 19.418 20.0202C19.418 26.6188 24.7672 31.9681 31.3659 31.9681C37.9645 31.9681 43.3138 26.6188 43.3138 20.0202C43.3138 13.4215 37.9645 8.07227 31.3659 8.07227ZM17.4805 20.0202C17.4805 12.3515 23.6972 6.13477 31.3659 6.13477C39.0346 6.13477 45.2513 12.3515 45.2513 20.0202C45.2513 27.6889 39.0346 33.9056 31.3659 33.9056C23.6972 33.9056 17.4805 27.6889 17.4805 20.0202Z" fill="#3B3C3D"/>
<path fill-rule="evenodd" clip-rule="evenodd" d="M12.6361 46.1758C10.6743 46.1758 9.08398 47.7661 9.08398 49.7279C9.08398 51.6897 10.6743 53.28 12.6361 53.28C14.5978 53.28 16.1882 51.6897 16.1882 49.7279C16.1882 47.7661 14.5978 46.1758 12.6361 46.1758ZM7.14648 49.7279C7.14648 46.6961 9.60425 44.2383 12.6361 44.2383C15.6679 44.2383 18.1257 46.6961 18.1257 49.7279C18.1257 52.7597 15.6679 55.2175 12.6361 55.2175C9.60425 55.2175 7.14648 52.7597 7.14648 49.7279Z" fill="#3B3C3D"/>
<path fill-rule="evenodd" clip-rule="evenodd" d="M31.3646 46.1758C29.4028 46.1758 27.8125 47.7661 27.8125 49.7279C27.8125 51.6897 29.4028 53.28 31.3646 53.28C33.3263 53.28 34.9167 51.6897 34.9167 49.7279C34.9167 47.7661 33.3263 46.1758 31.3646 46.1758ZM25.875 49.7279C25.875 46.6961 28.3328 44.2383 31.3646 44.2383C34.3964 44.2383 36.8542 46.6961 36.8542 49.7279C36.8542 52.7597 34.3964 55.2175 31.3646 55.2175C28.3328 55.2175 25.875 52.7597 25.875 49.7279Z" fill="#3B3C3D"/>
<path fill-rule="evenodd" clip-rule="evenodd" d="M50.095 46.1758C48.1333 46.1758 46.543 47.7661 46.543 49.7279C46.543 51.6897 48.1333 53.28 50.095 53.28C52.0568 53.28 53.6471 51.6897 53.6471 49.7279C53.6471 47.7661 52.0568 46.1758 50.095 46.1758ZM44.6055 49.7279C44.6055 46.6961 47.0632 44.2383 50.095 44.2383C53.1269 44.2383 55.5846 46.6961 55.5846 49.7279C55.5846 52.7597 53.1269 55.2175 50.095 55.2175C47.0632 55.2175 44.6055 52.7597 44.6055 49.7279Z" fill="#3B3C3D"/>
<path fill-rule="evenodd" clip-rule="evenodd" d="M28.525 11.2269C27.6988 13.4301 27.168 16.5388 27.168 20.0202C27.168 23.5016 27.6988 26.6103 28.525 28.8135C28.9394 29.9187 29.4095 30.7457 29.8824 31.2791C30.3563 31.8136 30.7507 31.9681 31.043 31.9681C31.3352 31.9681 31.7296 31.8136 32.2035 31.2791C32.6764 30.7457 33.1465 29.9187 33.5609 28.8135C34.3871 26.6103 34.918 23.5016 34.918 20.0202C34.918 16.5388 34.3871 13.4301 33.5609 11.2269C33.1465 10.1217 32.6764 9.29462 32.2035 8.76125C31.7296 8.22674 31.3352 8.07227 31.043 8.07227C30.7507 8.07227 30.3563 8.22674 29.8824 8.76125C29.4095 9.29462 28.9394 10.1217 28.525 11.2269ZM28.4327 7.4759C29.1178 6.70316 29.9977 6.13477 31.043 6.13477C32.0883 6.13477 32.9681 6.70316 33.6533 7.4759C34.3394 8.24976 34.913 9.31429 35.3751 10.5466C36.302 13.0183 36.8555 16.3679 36.8555 20.0202C36.8555 23.6724 36.302 27.0221 35.3751 29.4938C34.913 30.7261 34.3394 31.7906 33.6533 32.5645C32.9681 33.3372 32.0883 33.9056 31.043 33.9056C29.9977 33.9056 29.1178 33.3372 28.4327 32.5645C27.7466 31.7906 27.173 30.7261 26.7109 29.4938C25.784 27.0221 25.2305 23.6724 25.2305 20.0202C25.2305 16.3679 25.784 13.0183 26.7109 10.5466C27.173 9.31429 27.7466 8.24976 28.4327 7.4759Z" fill="#3B3C3D"/>
<path fill-rule="evenodd" clip-rule="evenodd" d="M44.9284 20.9883H18.4492V19.0508H44.9284V20.9883Z" fill="#3B3C3D"/>
<path fill-rule="evenodd" clip-rule="evenodd" d="M13.6054 37.4627L13.5669 41.9752L11.6295 41.9637L11.668 37.4512L13.6054 37.4627Z" fill="#3B3C3D"/>
<path fill-rule="evenodd" clip-rule="evenodd" d="M51.7089 37.4663L51.6518 41.9789L49.7144 41.9617L49.7715 37.4492L51.7089 37.4663Z" fill="#3B3C3D"/>
<path fill-rule="evenodd" clip-rule="evenodd" d="M32.2498 35.5311L32.1659 41.9821L30.2286 41.9569L30.3125 35.5059L32.2498 35.5311Z" fill="#3B3C3D"/>
<path fill-rule="evenodd" clip-rule="evenodd" d="M50.7402 39.7188H11.9902V37.7812H50.7402V39.7188Z" fill="#3B3C3D"/>
</svg>
