<svg width="63" height="63" viewBox="0 0 63 63" fill="none" xmlns="http://www.w3.org/2000/svg">
<path fill-rule="evenodd" clip-rule="evenodd" d="M40.1042 24.8439L30.1372 37.0282L23.207 29.5182L24.6309 28.2042L30.0491 34.0758L38.6046 23.6172L40.1042 24.8439Z" fill="#3B3C3D"/>
<path fill-rule="evenodd" clip-rule="evenodd" d="M31.5005 6.88281L51.2736 13.9032L48.1305 46.2004L31.5005 56.1866L14.8705 46.2004L11.7207 13.9032L31.5005 6.88281ZM13.7961 15.2225L16.7042 45.0416L31.5005 53.9266L46.2967 45.0416L49.1986 15.2225L31.5004 8.93877L13.7961 15.2225Z" fill="#3B3C3D"/>
<path fill-rule="evenodd" clip-rule="evenodd" d="M31.5014 12.3281L46.9539 17.8113L44.5083 42.9398L31.5014 50.7496L18.4944 42.9398L16.0488 17.8113L31.5014 12.3281ZM18.1239 19.1308L20.3283 41.781L31.5014 48.4896L42.6744 41.781L44.8788 19.1308L31.5014 14.384L18.1239 19.1308Z" fill="#3B3C3D"/>
</svg>
