<svg width="63" height="63" viewBox="0 0 63 63" fill="none" xmlns="http://www.w3.org/2000/svg">
<path fill-rule="evenodd" clip-rule="evenodd" d="M44.4686 38.6074L54.1215 55.3533H27.6504L33.5877 45.0965L35.2646 46.0672L31.0107 53.4158H50.7683L42.79 39.575L44.4686 38.6074Z" fill="#3B3C3D"/>
<path fill-rule="evenodd" clip-rule="evenodd" d="M40.8803 32.4297L44.4664 38.6063L42.7908 39.5791L40.8874 36.3007L35.2651 46.0666L33.5859 45.1L40.8803 32.4297Z" fill="#3B3C3D"/>
<path fill-rule="evenodd" clip-rule="evenodd" d="M40.0059 48.766V40.8223H41.9434V48.766H40.0059Z" fill="#3B3C3D"/>
<path d="M40.9557 52.4486C41.6691 52.4486 42.2474 51.8703 42.2474 51.1569C42.2474 50.4435 41.6691 49.8652 40.9557 49.8652C40.2424 49.8652 39.6641 50.4435 39.6641 51.1569C39.6641 51.8703 40.2424 52.4486 40.9557 52.4486Z" fill="#3B3C3D"/>
<path fill-rule="evenodd" clip-rule="evenodd" d="M24.0371 6.32227L28.2526 13.6793C28.7981 13.6186 29.3464 13.5861 29.8955 13.5817C30.2702 13.5772 30.6449 13.5859 31.0188 13.6079L35.228 6.32289L46.8059 13.0144L42.8312 19.8964C43.4901 20.7463 44.0626 21.6598 44.5402 22.6233H52.645V35.9791H46.1221V34.0416H50.7075V24.5608H43.2986L43.0421 23.988C42.4963 22.7694 41.7818 21.6335 40.9196 20.6138L40.4798 20.0937L44.1594 13.7227L35.9362 8.97001L32.0784 15.6469L31.4568 15.5855C30.9452 15.535 30.4311 15.5128 29.917 15.5191L29.9128 15.5191C29.2329 15.5244 28.5544 15.579 27.8824 15.6823L27.2252 15.7833L23.3216 8.97063L15.0828 13.7176L18.9969 20.5019L18.586 21.018C17.8614 21.9281 17.2525 22.9246 16.7734 23.9846L16.5158 24.5544H8.05664V34.0416H16.1672L16.3964 34.6856C16.8624 35.995 17.5147 37.2304 18.3333 38.3536L18.7055 38.8644L14.6122 45.9098L22.8287 50.6831L26.3731 44.543L28.0511 45.5116L23.5354 53.3344L11.9636 46.6118L16.4021 38.9722C15.7713 38.032 15.2396 37.0289 14.8156 35.9791H6.11914V22.6169H15.279C15.6774 21.8206 16.1416 21.0591 16.6667 20.3401L12.4359 13.0066L24.0371 6.32227Z" fill="#3B3C3D"/>
<path fill-rule="evenodd" clip-rule="evenodd" d="M29.9049 37.1536C33.8285 37.1536 37.0091 33.973 37.0091 30.0495C37.0091 26.126 33.8285 22.9453 29.9049 22.9453C25.9814 22.9453 22.8008 26.126 22.8008 30.0495C22.8008 33.973 25.9814 37.1536 29.9049 37.1536ZM29.9049 39.0911C34.8985 39.0911 38.9466 35.0431 38.9466 30.0495C38.9466 25.0559 34.8985 21.0078 29.9049 21.0078C24.9114 21.0078 20.8633 25.0559 20.8633 30.0495C20.8633 35.0431 24.9114 39.0911 29.9049 39.0911Z" fill="#3B3C3D"/>
</svg>
