<svg width="129" height="18" viewBox="0 0 129 18" fill="none" xmlns="http://www.w3.org/2000/svg">
<path d="M0.300781 0.463296H2.04016V16.9168H0.300781V0.463296Z" fill="#181818"/>
<path d="M27.4904 0.463296V16.9168H26.0566L15.4794 3.56596V16.9168H13.74V0.463296H15.1738L25.7746 13.8142V0.463296H27.4904Z" fill="#181818"/>
<path d="M52.7035 0.463296L45.4169 16.9168H43.701L36.4145 0.463296H38.2949L44.5942 14.7544L50.9406 0.463296H52.7035Z" fill="#181818"/>
<path d="M73.0728 15.4125V16.9168H61.4378V0.463296H72.7202V1.96762H63.1772V7.82038H71.686V9.3012H63.1772V15.4125H73.0728Z" fill="#181818"/>
<path d="M100.596 0.463296V16.9168H98.9271V3.754L92.4632 14.8249H91.6405L85.1766 3.82452V16.9168H83.5078V0.463296H84.9416L92.0871 12.6624L99.1621 0.463296H100.596Z" fill="#181818"/>
<path d="M119.496 17.0579C117.866 17.0579 116.385 16.6975 115.053 15.9766C113.737 15.2401 112.703 14.2373 111.951 12.968C111.214 11.6987 110.846 10.2727 110.846 8.69007C110.846 7.10739 111.214 5.68142 111.951 4.41215C112.703 3.14287 113.737 2.14782 115.053 1.427C116.385 0.690511 117.866 0.322266 119.496 0.322266C121.126 0.322266 122.591 0.682677 123.891 1.4035C125.208 2.12432 126.242 3.1272 126.994 4.41215C127.746 5.68142 128.122 7.10739 128.122 8.69007C128.122 10.2727 127.746 11.7065 126.994 12.9915C126.242 14.2608 125.208 15.2558 123.891 15.9766C122.591 16.6975 121.126 17.0579 119.496 17.0579ZM119.496 15.5065C120.796 15.5065 121.972 15.2166 123.022 14.6368C124.072 14.0414 124.894 13.2265 125.49 12.1923C126.085 11.1424 126.383 9.97501 126.383 8.69007C126.383 7.40512 126.085 6.24554 125.49 5.21132C124.894 4.16143 124.072 3.34658 123.022 2.76679C121.972 2.17133 120.796 1.8736 119.496 1.8736C118.195 1.8736 117.012 2.17133 115.947 2.76679C114.897 3.34658 114.066 4.16143 113.455 5.21132C112.86 6.24554 112.562 7.40512 112.562 8.69007C112.562 9.97501 112.86 11.1424 113.455 12.1923C114.066 13.2265 114.897 14.0414 115.947 14.6368C117.012 15.2166 118.195 15.5065 119.496 15.5065Z" fill="#181818"/>
</svg>
