<svg width="71" height="71" viewBox="0 0 71 71" fill="none" xmlns="http://www.w3.org/2000/svg">
<path fill-rule="evenodd" clip-rule="evenodd" d="M31.822 42.6699H23.5684V40.4824H32.8147L38.6008 47.0952L37.59 52.1491H33.3236L29.3575 48.1829L30.9043 46.6361L34.2297 49.9616H35.7967L36.2442 47.7239L31.822 42.6699Z" fill="#3B3C3D"/>
<path fill-rule="evenodd" clip-rule="evenodd" d="M56.2068 49.1996L37.382 48.5024L37.463 46.3164L58.0132 47.0775L59.1177 52.5999L33.5687 58.7936L29.0705 55.7948H23.5684V53.6073H29.7329L33.9847 56.4419L56.5607 50.9689L56.2068 49.1996Z" fill="#3B3C3D"/>
<path fill-rule="evenodd" clip-rule="evenodd" d="M45.0781 25.8984C41.4538 25.8984 38.5156 28.8366 38.5156 32.4609C38.5156 36.0853 41.4538 39.0234 45.0781 39.0234C48.7025 39.0234 51.6406 36.0853 51.6406 32.4609C51.6406 28.8366 48.7025 25.8984 45.0781 25.8984ZM36.3281 32.4609C36.3281 27.6284 40.2456 23.7109 45.0781 23.7109C49.9106 23.7109 53.8281 27.6284 53.8281 32.4609C53.8281 37.2934 49.9106 41.2109 45.0781 41.2109C40.2456 41.2109 36.3281 37.2934 36.3281 32.4609Z" fill="#3B3C3D"/>
<path fill-rule="evenodd" clip-rule="evenodd" d="M46.3047 9.49219V21.1589H44.1172V9.49219H46.3047Z" fill="#3B3C3D"/>
<path fill-rule="evenodd" clip-rule="evenodd" d="M41.9297 13.8672V21.1589H39.7422V13.8672H41.9297Z" fill="#3B3C3D"/>
<path fill-rule="evenodd" clip-rule="evenodd" d="M50.6797 11.6797V21.1589H48.4922V11.6797H50.6797Z" fill="#3B3C3D"/>
<path fill-rule="evenodd" clip-rule="evenodd" d="M11.5371 38.2949H21.7454V59.4408H11.5371V38.2949ZM13.7246 40.4824V57.2533H19.5579V40.4824H13.7246Z" fill="#3B3C3D"/>
</svg>
