<svg width="71" height="71" viewBox="0 0 71 71" fill="none" xmlns="http://www.w3.org/2000/svg">
<path fill-rule="evenodd" clip-rule="evenodd" d="M23.7053 11.2082C29.3257 8.51281 35.6983 7.81859 41.7673 9.2406C47.8362 10.6626 53.2372 14.1155 57.0752 19.0271L55.3515 20.374C51.8205 15.8553 46.8517 12.6787 41.2682 11.3704C35.6848 10.0622 29.822 10.7008 24.6512 13.1806C19.4805 15.6604 15.3121 19.8324 12.837 25.0054C10.3618 30.1784 9.72833 36.0418 11.0416 41.6241L8.91219 42.125C7.48477 36.0573 8.17331 29.6841 10.8637 24.0613C13.5541 18.4385 18.0849 13.9036 23.7053 11.2082Z" fill="#3B3C3D"/>
<path fill-rule="evenodd" clip-rule="evenodd" d="M62.1916 30.041C63.4545 36.0344 62.6685 42.2783 59.9597 47.7718C57.2508 53.2652 52.776 57.6901 47.2525 60.3371C41.729 62.9842 35.4767 63.7001 29.4978 62.3701C23.519 61.04 18.1598 57.7411 14.2793 53.0022L15.9718 51.6163C19.5418 55.9761 24.4723 59.0111 29.9728 60.2347C35.4734 61.4584 41.2255 60.7997 46.3071 58.3645C51.3887 55.9292 55.5056 51.8583 57.9977 46.8043C60.4898 41.7503 61.213 36.006 60.0511 30.492L62.1916 30.041Z" fill="#3B3C3D"/>
<path fill-rule="evenodd" clip-rule="evenodd" d="M14.1621 50.6562L23.4724 52.349L23.081 54.5012L16.3496 53.2773V59.9876H14.1621V50.6562Z" fill="#3B3C3D"/>
<path fill-rule="evenodd" clip-rule="evenodd" d="M55.7243 19.3021V12.5918H57.9118V21.9232L48.6016 20.2304L48.9929 18.0782L55.7243 19.3021Z" fill="#3B3C3D"/>
<path fill-rule="evenodd" clip-rule="evenodd" d="M35.6732 21.7129C28.2231 21.7129 22.1836 27.7524 22.1836 35.2025C22.1836 42.6526 28.2231 48.6921 35.6732 48.6921C43.1233 48.6921 49.1628 42.6526 49.1628 35.2025C49.1628 27.7524 43.1233 21.7129 35.6732 21.7129ZM19.9961 35.2025C19.9961 26.5443 27.015 19.5254 35.6732 19.5254C44.3314 19.5254 51.3503 26.5443 51.3503 35.2025C51.3503 43.8607 44.3314 50.8796 35.6732 50.8796C27.015 50.8796 19.9961 43.8607 19.9961 35.2025Z" fill="#3B3C3D"/>
<path d="M40.2013 38.7165C40.2307 38.0269 40.0841 37.3411 39.7754 36.7237C39.4667 36.1064 39.0061 35.5777 38.4367 35.1874C37.4788 34.5937 36.4329 34.1556 35.3378 33.8895C33.1065 33.2113 32.4211 32.854 32.4211 31.7822C32.4211 30.5936 33.9669 30.1707 35.294 30.1707C36.2609 30.1675 37.2115 30.419 38.0503 30.8999L39.4211 28.7853C38.4086 28.1872 37.2749 27.8234 36.1034 27.7207V25.752H33.5878V27.8592C31.3492 28.3551 29.9419 29.8207 29.9419 31.8113C29.9229 32.461 30.0711 33.1047 30.3725 33.6806C30.6738 34.2564 31.1181 34.7452 31.6628 35.0999C32.5678 35.6527 33.5511 36.0656 34.5794 36.3249C36.7669 36.9884 37.6638 37.3895 37.6492 38.7311C37.6492 39.854 36.1909 40.2551 34.893 40.2551C33.6809 40.2502 32.5168 39.7804 31.6409 38.9426L29.8398 40.6488C30.854 41.6789 32.1641 42.3671 33.5878 42.6176V44.6811H36.1034V42.6686C38.5971 42.304 40.194 40.8457 40.2013 38.7165Z" fill="#3B3C3D"/>
</svg>
