<svg width="71" height="71" viewBox="0 0 71 71" fill="none" xmlns="http://www.w3.org/2000/svg">
<path fill-rule="evenodd" clip-rule="evenodd" d="M50.9531 58.5078H20.3281V56.3203H50.9531V58.5078Z" fill="#3B3C3D"/>
<path fill-rule="evenodd" clip-rule="evenodd" d="M27.2559 9.28906H29.4434V12.5703H43.2975V9.28906H45.485V14.7578H27.2559V9.28906Z" fill="#3B3C3D"/>
<path fill-rule="evenodd" clip-rule="evenodd" d="M51.7344 32.3606C47.3815 32.3606 43.8528 35.8893 43.8528 40.2422C43.8528 44.5951 47.3815 48.1238 51.7344 48.1238C56.0873 48.1238 59.616 44.5951 59.616 40.2422C59.616 35.8893 56.0873 32.3606 51.7344 32.3606ZM42.2344 40.2422C42.2344 34.9955 46.4877 30.7422 51.7344 30.7422C56.9811 30.7422 61.2344 34.9955 61.2344 40.2422C61.2344 45.4889 56.9811 49.7422 51.7344 49.7422C46.4877 49.7422 42.2344 45.4889 42.2344 40.2422Z" fill="#3B3C3D"/>
<path d="M52.4675 45.7422V44.3613C54.0358 44.2092 55.2344 43.5656 55.2344 41.8922C55.2344 38.9901 50.7207 39.5518 50.7207 38.4869C50.7207 38.1826 50.9885 37.972 51.8555 37.9603C52.8883 37.9486 53.8956 38.206 54.6606 38.7326V36.7433C54.0996 36.4507 53.2963 36.2401 52.4675 36.1464V34.7422H50.81V36.1347C49.3437 36.3103 48.2981 37.0826 48.2981 38.4986C48.2981 41.4241 52.8118 40.7922 52.8118 41.9741C52.8118 42.3837 52.4165 42.5241 51.4857 42.5241C50.4657 42.5241 49.2927 42.2667 48.2344 41.5996V43.6475C48.9612 44.022 49.8537 44.2677 50.81 44.3613V45.7422H52.4675Z" fill="#3B3C3D"/>
<path fill-rule="evenodd" clip-rule="evenodd" d="M19.2344 8.19531H52.776V28.7432H50.5885V10.3828H21.4219V60.6953H50.5885V51.7432H52.776V62.8828H19.2344V8.19531Z" fill="#3B3C3D"/>
</svg>
