<svg width="71" height="71" viewBox="0 0 71 71" fill="none" xmlns="http://www.w3.org/2000/svg">
<g clip-path="url(#clip0)">
<path fill-rule="evenodd" clip-rule="evenodd" d="M21.0547 12.9668H34.2321V15.2008H23.2887V59.0647H73.5547V15.2008H61.8967V12.9668H75.7887V61.2988H21.0547V12.9668Z" fill="#3B3C3D"/>
<path fill-rule="evenodd" clip-rule="evenodd" d="M49.4743 47.9974C46.1576 50.5854 42.0805 51.66 38.9434 51.66V49.4259C41.6396 49.4259 45.2187 48.4844 48.0999 46.2361C50.939 44.0209 53.1388 40.5124 53.1388 35.2305H55.3729C55.3729 41.2288 52.8332 45.3765 49.4743 47.9974Z" fill="#3B3C3D"/>
<path fill-rule="evenodd" clip-rule="evenodd" d="M32.3794 48.7438C31.3855 48.7438 30.5797 49.5495 30.5797 50.5435C30.5797 51.5374 31.3855 52.3431 32.3794 52.3431C33.3733 52.3431 34.179 51.5374 34.179 50.5435C34.179 49.5495 33.3733 48.7438 32.3794 48.7438ZM28.3457 50.5435C28.3457 48.3157 30.1516 46.5098 32.3794 46.5098C34.6071 46.5098 36.4131 48.3157 36.4131 50.5435C36.4131 52.7712 34.6071 54.5772 32.3794 54.5772C30.1516 54.5772 28.3457 52.7712 28.3457 50.5435Z" fill="#3B3C3D"/>
<path fill-rule="evenodd" clip-rule="evenodd" d="M54.9849 24.6813C53.9909 24.6813 53.1852 25.487 53.1852 26.481C53.1852 27.4749 53.9909 28.2806 54.9849 28.2806C55.9788 28.2806 56.7845 27.4749 56.7845 26.481C56.7845 25.487 55.9788 24.6813 54.9849 24.6813ZM50.9512 26.481C50.9512 24.2532 52.7571 22.4473 54.9849 22.4473C57.2126 22.4473 59.0185 24.2532 59.0185 26.481C59.0185 28.7087 57.2126 30.5146 54.9849 30.5146C52.7571 30.5146 50.9512 28.7087 50.9512 26.481Z" fill="#3B3C3D"/>
<path fill-rule="evenodd" clip-rule="evenodd" d="M54.3643 32.9238L59.079 38.3553L57.3919 39.8197L54.1442 36.0782L50.4087 39.3319L48.9414 37.6473L54.3643 32.9238Z" fill="#3B3C3D"/>
<path fill-rule="evenodd" clip-rule="evenodd" d="M35.9658 33.1548L30.8105 27.9996L32.3903 26.4199L37.5455 31.5751L35.9658 33.1548Z" fill="#3B3C3D"/>
<path fill-rule="evenodd" clip-rule="evenodd" d="M30.8105 31.5751L35.9658 26.4199L37.5455 27.9996L32.3903 33.1548L30.8105 31.5751Z" fill="#3B3C3D"/>
<path fill-rule="evenodd" clip-rule="evenodd" d="M65.9111 51.3326L60.7559 46.1774L62.3356 44.5977L67.4908 49.7529L65.9111 51.3326Z" fill="#3B3C3D"/>
<path fill-rule="evenodd" clip-rule="evenodd" d="M60.7559 49.7529L65.9111 44.5977L67.4908 46.1774L62.3356 51.3326L60.7559 49.7529Z" fill="#3B3C3D"/>
<path fill-rule="evenodd" clip-rule="evenodd" d="M36.3672 10.0508H59.7471V18.1182H36.3672V10.0508ZM38.6012 12.2848V15.8841H57.513V12.2848H38.6012Z" fill="#3B3C3D"/>
</g>
<defs>
<clipPath id="clip0">
<rect width="70" height="70" fill="white" transform="translate(0.955078 0.742188)"/>
</clipPath>
</defs>
</svg>
